<?xml version="1.0" standalone="no"?>
<!DOCTYPE svg PUBLIC "-//W3C//DTD SVG 1.1//EN" "http://www.w3.org/Graphics/SVG/1.1/DTD/svg11.dtd" >
<!--
2013-9-30: Created.
-->
<svg>
<metadata>
Created by iconfont
</metadata>
<defs>

<font id="iconfont" horiz-adv-x="1024" >
  <font-face
    font-family="iconfont"
    font-weight="500"
    font-stretch="normal"
    units-per-em="1024"
    ascent="896"
    descent="-128"
  />
    <missing-glyph />
    
    <glyph glyph-name="baocun_o" unicode="&#60231;" d="M725.333333 213.333333v-128h85.333334V499.2L669.866667 640H256v-554.666667h85.333333v170.666667h42.666667v-170.666667h298.666667v128H384v42.666667h341.333333v-42.666667z m-38.4 469.333334L853.333333 516.266667V42.666667H213.333333V682.666667h473.6zM341.333333 554.666667h42.666667v-213.333334H341.333333V554.666667z"  horiz-adv-x="1024" />

    
    <glyph glyph-name="biaoqian_o" unicode="&#60232;" d="M448 42.666667L170.666667 320 576 725.333333H853.333333v-277.333333L448 42.666667z m0 59.733333l362.666667 362.666667V682.666667h-217.6l-362.666667-362.666667 217.6-217.6zM682.666667 597.333333c25.6 0 42.666667-17.066667 42.666666-42.666666s-17.066667-42.666667-42.666666-42.666667-42.666667 17.066667-42.666667 42.666667 17.066667 42.666667 42.666667 42.666666z"  horiz-adv-x="1024" />

    
    <glyph glyph-name="bianjibiaoge_o" unicode="&#60233;" d="M546.133333 768l243.2-243.2-371.2-371.2H170.666667v243.2L546.133333 768zM213.333333 379.733333v-179.2h179.2L725.333333 524.8l-179.2 179.2L213.333333 379.733333z m-42.666666-311.466666h128v-42.666667H170.666667v42.666667z m170.666666 0h213.333334v-42.666667H341.333333v42.666667z m256 0h298.666667v-42.666667h-298.666667v42.666667z"  horiz-adv-x="1024" />

    
    <glyph glyph-name="dayinji_o" unicode="&#60234;" d="M341.333333 256v-170.666667h384v170.666667H341.333333z m-42.666666-42.666667H170.666667V554.666667h128V725.333333h469.333333v-170.666666h128v-341.333334h-128v-170.666666H298.666667v170.666666z m42.666666 298.666667H213.333333v-256h42.666667v42.666667h554.666667v-42.666667h42.666666V512H341.333333z m0 42.666667h384V682.666667H341.333333v-128z m-85.333333-85.333334h128v-42.666666H256v42.666666z"  horiz-adv-x="1024" />

    
    <glyph glyph-name="chizi_o" unicode="&#60235;" d="M580.266667 669.866667l-55.466667-55.466667 98.133333-98.133333-29.866666-29.866667-98.133334 98.133333-55.466666-55.466666 98.133333-98.133334-29.866667-29.866666-98.133333 98.133333-55.466667-55.466667 98.133334-98.133333-29.866667-29.866667-98.133333 98.133334-55.466667-55.466667 98.133333-98.133333-29.866666-29.866667-98.133334 98.133333-93.866666-93.866666 179.2-179.2 512 512-179.2 179.2-51.2-51.2L704 597.333333l-29.866667-29.866666-93.866666 102.4zM657.066667 810.666667l243.2-243.2L328.533333-4.266667 85.333333 238.933333 657.066667 810.666667z"  horiz-adv-x="1024" />

    
    <glyph glyph-name="bangongbao_o" unicode="&#60236;" d="M469.333333 426.666667H213.333333v42.666666h640v-42.666666h-256v-42.666667h-128v42.666667zM384 597.333333V682.666667h298.666667v-85.333334h213.333333v-512H170.666667V597.333333h213.333333z m42.666667 0h213.333333V640h-213.333333v-42.666667zM213.333333 554.666667v-426.666667h640V554.666667H213.333333z"  horiz-adv-x="1024" />

    
    <glyph glyph-name="daoru_o" unicode="&#60237;" d="M780.8 413.866667l29.866667-29.866667h-298.666667V682.666667l42.666667-42.666667 98.133333-98.133333L789.333333 682.666667l29.866667-29.866667L682.666667 512l98.133333-98.133333z m-72.533333 12.8L554.666667 580.266667V426.666667h153.6zM469.333333 682.666667v-42.666667H213.333333v-554.666667h554.666667v256h42.666667v-298.666666H170.666667V682.666667h298.666666z"  horiz-adv-x="1024" />

    
    <glyph glyph-name="diannao_o" unicode="&#60238;" d="M554.666667 213.333333v-85.333333h128v-42.666667H384v42.666667h128v85.333333H170.666667V682.666667h725.333333v-469.333334h-341.333333z m0 42.666667h298.666666V640H213.333333v-384h341.333334z"  horiz-adv-x="1024" />

    
    <glyph glyph-name="bianji_o" unicode="&#60239;" d="M541.866667 657.066667l243.2-243.2L413.866667 42.666667H170.666667v243.2l371.2 371.2z m0-59.733334L213.333333 264.533333V85.333333h179.2l328.533334 328.533334L541.866667 597.333333z m72.533333 128L853.333333 482.133333l-29.866666-29.866666-243.2 243.2 34.133333 29.866666z"  horiz-adv-x="1024" />

    
    <glyph glyph-name="bijibendiannao_o" unicode="&#60240;" d="M896 640v-469.333333H170.666667V640h725.333333zM213.333333 597.333333v-384h640V597.333333H213.333333z m725.333334-469.333333v-42.666667H128v42.666667h810.666667z"  horiz-adv-x="1024" />

    
    <glyph glyph-name="ding_o" unicode="&#60241;" d="M405.333333 465.066667l136.533334 136.533333-29.866667 29.866667L605.866667 725.333333l273.066666-273.066666-89.6-89.6-29.866666 29.866666-140.8-136.533333 59.733333-59.733333-89.6-89.6L256 435.2l89.6 89.6 59.733333-59.733333z m-89.6-29.866667l273.066667-273.066667 29.866667 29.866667-59.733334 64 200.533334 200.533333 29.866666-29.866666 29.866667 29.866666-209.066667 209.066667-29.866666-29.866667 29.866666-29.866666-200.533333-200.533334-59.733333 59.733334-34.133334-29.866667z m55.466667-192l29.866667-29.866667-200.533334-200.533333-29.866666 34.133333 200.533333 196.266667z"  horiz-adv-x="1024" />

    
    <glyph glyph-name="jianpan_o" unicode="&#60242;" d="M554.666667 256h128v-42.666667H384v42.666667h170.666667z m341.333333 384v-554.666667H170.666667V640h725.333333zM213.333333 597.333333v-469.333333h640V597.333333H213.333333z m128-85.333333v-42.666667H256V512h85.333333z m170.666667 0v-42.666667H384V512h128z m170.666667 0v-42.666667h-128V512h128z m128 0v-42.666667h-85.333334V512h85.333334zM341.333333 384v-42.666667H256v42.666667h85.333333z m170.666667 0v-42.666667H384v42.666667h128z m170.666667 0v-42.666667h-128v42.666667h128z m128 0v-42.666667h-85.333334v42.666667h85.333334zM341.333333 256v-42.666667H256v42.666667h85.333333z m469.333334 0v-42.666667h-85.333334v42.666667h85.333334z"  horiz-adv-x="1024" />

    
    <glyph glyph-name="shaixuan_o" unicode="&#60243;" d="M597.333333 324.266667L938.666667 682.666667H128l341.333333-358.4V128l128-85.333333v281.6z m0 64l-42.666666-42.666667V128l-42.666667 29.866667v192l-42.666667 42.666666L230.4 640h605.866667L597.333333 388.266667z"  horiz-adv-x="1024" />

    
    <glyph glyph-name="jiesuo_o" unicode="&#60244;" d="M256 469.333333h554.666667v-469.333333H256V469.333333z m42.666667-42.666666v-384h469.333333v384H298.666667z m426.666666 85.333333h-42.666666v21.333333C682.666667 614.4 614.4 682.666667 533.333333 682.666667S384 614.4 384 533.333333V426.666667H256v42.666666h85.333333V533.333333C341.333333 640 426.666667 725.333333 533.333333 725.333333S725.333333 640 725.333333 533.333333V512z m0-42.666667h85.333334v-42.666666h-128v42.666666h42.666666z m-192-298.666666c-34.133333 0-64 29.866667-64 64s29.866667 64 64 64 64-29.866667 64-64-29.866667-64-64-64z"  horiz-adv-x="1024" />

    
    <glyph glyph-name="daochu_o" unicode="&#60245;" d="M678.4 516.266667l-140.8-140.8-29.866667 29.866666 140.8 140.8L554.666667 640l-42.666667 42.666667h298.666667v-298.666667l-42.666667 42.666667-89.6 89.6zM614.4 640L768 486.4V640h-153.6zM213.333333 640v-554.666667h554.666667v298.666667l42.666667-42.666667v-298.666666H170.666667V682.666667h298.666666l42.666667-42.666667H213.333333z"  horiz-adv-x="1024" />

    
    <glyph glyph-name="shouji_o" unicode="&#60246;" d="M341.333333 0H298.666667V725.333333h469.333333v-725.333333H341.333333z m0 42.666667h384V682.666667H341.333333v-640z m128 42.666666v42.666667h128v-42.666667h-128z"  horiz-adv-x="1024" />

    
    <glyph glyph-name="tianjiafujian_o" unicode="&#60247;" d="M256 320h452.266667c25.6 0 42.666667 17.066667 42.666666 42.666667s-17.066667 42.666667-42.666666 42.666666H256v42.666667H170.666667h537.6c46.933333 0 85.333333-38.4 85.333333-85.333333s-38.4-85.333333-85.333333-85.333334H234.666667C153.6 277.333333 85.333333 345.6 85.333333 426.666667s68.266667 149.333333 149.333334 149.333333h516.266666c119.466667 0 213.333333-93.866667 213.333334-213.333333s-93.866667-213.333333-213.333334-213.333334H320 341.333333v42.666667h409.6c93.866667 0 170.666667 76.8 170.666667 170.666667s-76.8 170.666667-170.666667 170.666666H234.666667C174.933333 533.333333 128 486.4 128 426.666667s46.933333-106.666667 106.666667-106.666667H256z"  horiz-adv-x="1024" />

    
    <glyph glyph-name="shu_o" unicode="&#60248;" d="M213.333333 682.666667h640v-640H213.333333V682.666667z m42.666667-42.666667v-554.666667h554.666667V640H256z m85.333333 0h42.666667v-554.666667H341.333333V640z"  horiz-adv-x="1024" />

    
    <glyph glyph-name="fuzhi_o" unicode="&#60249;" d="M725.333333 554.666667h128v-512H341.333333v128H213.333333V682.666667h512v-128z m0-42.666667v-341.333333H384v-85.333334h426.666667V512h-85.333334zM256 640v-426.666667h426.666667V640H256z"  horiz-adv-x="1024" />

    
    <glyph glyph-name="wenben_o" unicode="&#60250;" d="M213.333333 682.666667h640v-426.666667l-213.333333-213.333333H213.333333V682.666667z m42.666667-42.666667v-554.666667h366.933333l187.733334 187.733334V640H256z m426.666667-170.666667H384V512h298.666667v-42.666667z m0-128H384v42.666667h298.666667v-42.666667z m-85.333334-128H384v42.666667h213.333333v-42.666667z"  horiz-adv-x="1024" />

    
    <glyph glyph-name="wenjianjia_o" unicode="&#60251;" d="M418.133333 597.333333l-42.666666 42.666667H213.333333v-512h640V597.333333H418.133333zM896 597.333333v-512H170.666667V682.666667h226.133333l42.666667-42.666667H896v-42.666667z m-298.666667-341.333333h170.666667v-42.666667h-170.666667v42.666667z"  horiz-adv-x="1024" />

    
    <glyph glyph-name="tupian_o" unicode="&#60252;" d="M320 268.8l29.866667 29.866667 29.866666-29.866667 64-64 149.333334 149.333333 29.866666 29.866667 29.866667-29.866667 196.266667-196.266666V597.333333H213.333333v-435.2l106.666667 106.666667z m29.866667-29.866667L238.933333 128h136.533334l-4.266667 4.266667 42.666667 42.666666-64 64zM823.466667 128l-196.266667 196.266667-196.266667-196.266667h392.533334zM896 640v-554.666667H170.666667V640h725.333333z"  horiz-adv-x="1024" />

    
    <glyph glyph-name="suoding_o" unicode="&#60253;" d="M256 469.333333h554.666667v-469.333333H256V469.333333z m42.666667-42.666666v-384h469.333333v384H298.666667z m42.666666 0H256v42.666666h85.333333V533.333333C341.333333 640 426.666667 725.333333 533.333333 725.333333S725.333333 640 725.333333 533.333333V469.333333h85.333334v-42.666666h-128V533.333333C682.666667 614.4 614.4 682.666667 533.333333 682.666667S384 614.4 384 533.333333V426.666667H341.333333z m192-256c-34.133333 0-64 29.866667-64 64s29.866667 64 64 64 64-29.866667 64-64-29.866667-64-64-64z"  horiz-adv-x="1024" />

    
    <glyph glyph-name="cangku_kucunxiangqing_o" unicode="&#60254;" d="M896 256h-42.666667v89.6l-320 320L213.333333 345.6V85.333333h298.666667v-42.666666H170.666667v277.333333H128L533.333333 725.333333l405.333334-405.333333h-42.666667V256z m-341.333333-42.666667h42.666666v-42.666666h-42.666666v42.666666z m0-85.333333h42.666666v-42.666667h-42.666666v42.666667z m0-85.333333h42.666666v-42.666667h-42.666666v42.666667z m85.333333 170.666666h256v-42.666666h-256v42.666666z m0-85.333333h256v-42.666667h-256v42.666667z m0-85.333333h256v-42.666667h-256v42.666667z"  horiz-adv-x="1024" />

    
    <glyph glyph-name="cangku_daozhan_o" unicode="&#60255;" d="M742.4 106.666667H938.666667v-42.666667h-196.266667l38.4-38.4-29.866667-29.866667-89.6 89.6 89.6 89.6 29.866667-29.866666-38.4-38.4zM896 256h-42.666667v89.6l-320 320L213.333333 345.6V85.333333h341.333334v-42.666666H170.666667v277.333333H128L533.333333 725.333333l405.333334-405.333333h-42.666667V256z"  horiz-adv-x="1024" />

    
    <glyph glyph-name="cangku_kucun_o" unicode="&#60256;" d="M896 256h-42.666667v89.6l-320 320L213.333333 345.6V85.333333h341.333334v-42.666666H170.666667v277.333333H128L533.333333 725.333333l405.333334-405.333333h-42.666667V256z m0-128v-128h-128v128h128z m-170.666667 0v-128h-128v128h128z m85.333334 170.666667v-128h-128v128h128z m-42.666667-42.666667h-42.666667v-42.666667h42.666667v42.666667z m-85.333333-170.666667h-42.666667v-42.666666h42.666667v42.666666z m170.666666 0h-42.666666v-42.666666h42.666666v42.666666z"  horiz-adv-x="1024" />

    
    <glyph glyph-name="cangku_cangchuguanli_o" unicode="&#60257;" d="M512 405.333333V426.666667h42.666667v-25.6c12.8-4.266667 25.6-8.533333 38.4-17.066667l17.066666 17.066667 29.866667-29.866667-17.066667-17.066667c8.533333-12.8 12.8-25.6 17.066667-38.4h25.6v-42.666666H640c-4.266667-12.8-8.533333-25.6-17.066667-38.4l17.066667-17.066667-29.866667-29.866667-17.066666 17.066667c-12.8-8.533333-25.6-12.8-38.4-17.066667v-17.066666h-42.666667v25.6c-12.8 4.266667-25.6 8.533333-38.4 17.066666l-17.066667-17.066666-29.866666 25.6 17.066666 17.066666c-8.533333 12.8-12.8 25.6-17.066666 38.4h-21.333334v42.666667h25.6c4.266667 12.8 8.533333 25.6 17.066667 38.4l-21.333333 17.066667 29.866666 29.866666 17.066667-17.066666c12.8 8.533333 25.6 12.8 38.4 17.066666z m328.533333-320v42.666667h85.333334v217.6l-234.666667 234.666667-21.333333-21.333334-29.866667 29.866667L691.2 640l320-320h-42.666667V85.333333h-128zM217.6 85.333333h-128v234.666667H42.666667L362.666667 640l51.2-51.2-29.866667-29.866667-21.333333 21.333334L128 345.6V128h85.333333v-42.666667z m597.333333 234.666667V85.333333h-554.666666v234.666667H213.333333L533.333333 640l320-320h-38.4z m-512 25.6V128h469.333334v217.6l-234.666667 234.666667-234.666667-234.666667z m230.4-110.933333c34.133333 0 64 29.866667 64 64s-29.866667 64-64 64-64-29.866667-64-64 29.866667-64 64-64z m0 42.666666c-12.8 0-21.333333 8.533333-21.333333 21.333334s8.533333 21.333333 21.333333 21.333333 21.333333-8.533333 21.333334-21.333333-8.533333-21.333333-21.333334-21.333334z"  horiz-adv-x="1024" />

    
    <glyph glyph-name="cangku_kucunshuaxin_o" unicode="&#60258;" d="M768 213.333333v42.666667c72.533333-8.533333 128-72.533333 128-149.333333s-55.466667-136.533333-128-149.333334v42.666667c46.933333 8.533333 85.333333 51.2 85.333333 102.4s-38.4 98.133333-85.333333 110.933333z m-42.666667 0c-46.933333-8.533333-85.333333-51.2-85.333333-102.4s38.4-93.866667 85.333333-102.4v-42.666666c-72.533333 8.533333-128 72.533333-128 149.333333s55.466667 136.533333 128 149.333333V213.333333z m170.666667 42.666667h-42.666667v89.6l-320 320L213.333333 345.6V85.333333h341.333334v-42.666666H170.666667v277.333333H128L533.333333 725.333333l405.333334-405.333333h-42.666667V256z m-42.666667-256v-42.666667h-85.333333v42.666667h85.333333z m-128 256v-42.666667h-85.333333v42.666667h85.333333z"  horiz-adv-x="1024" />

    
    <glyph glyph-name="cangku_cangneishicao_o" unicode="&#60259;" d="M640 0c0 46.933333 25.6 89.6 64 110.933333-12.8 17.066667-21.333333 38.4-21.333333 59.733334 0 46.933333 38.4 85.333333 85.333333 85.333333s85.333333-38.4 85.333333-85.333333c0-21.333333-8.533333-42.666667-21.333333-59.733334 38.4-21.333333 64-64 64-110.933333h-42.666667c0 46.933333-38.4 85.333333-85.333333 85.333333s-85.333333-38.4-85.333333-85.333333h-42.666667z m256 256h-42.666667v89.6l-320 320L213.333333 345.6V85.333333h341.333334v-42.666666H170.666667v277.333333H128L533.333333 725.333333l405.333334-405.333333h-42.666667V256z m-128-42.666667c-25.6 0-42.666667-17.066667-42.666667-42.666666s17.066667-42.666667 42.666667-42.666667 42.666667 17.066667 42.666667 42.666667-17.066667 42.666667-42.666667 42.666666z"  horiz-adv-x="1024" />

    
    <glyph glyph-name="cangku_o" unicode="&#60260;" d="M900.266667 320V42.666667h-725.333334v277.333333H128L533.333333 725.333333l405.333334-405.333333h-38.4z m-682.666667 25.6V85.333333h640v260.266667l-320 320-320-320z m256 38.4h128v-42.666667h-128v42.666667z"  horiz-adv-x="1024" />

    
    <glyph glyph-name="cangku_zhongzhuanchuzhan_o" unicode="&#60261;" d="M857.6 106.666667l-38.4 38.4 29.866667 29.866666L938.666667 85.333333l-89.6-89.6-29.866667 29.866667 38.4 38.4h-196.266667v42.666667h196.266667zM896 256h-42.666667v89.6l-320 320L213.333333 345.6V85.333333h341.333334v-42.666666H170.666667v277.333333H128L533.333333 725.333333l405.333334-405.333333h-42.666667V256z"  horiz-adv-x="1024" />

    
    <glyph glyph-name="fuwuliu_o" unicode="&#60262;" d="M665.6 256l21.333333-8.533333 21.333334 38.4-17.066667 17.066666c8.533333 17.066667 12.8 38.4 12.8 59.733334s-4.266667 42.666667-12.8 59.733333l17.066667 17.066667-21.333334 38.4-21.333333-8.533334c-25.6 34.133333-64 55.466667-106.666667 59.733334L554.666667 554.666667h-42.666667l-4.266667-21.333334c-42.666667-8.533333-81.066667-29.866667-106.666666-59.733333l-21.333334 4.266667-21.333333-38.4 17.066667-17.066667c-8.533333-17.066667-12.8-38.4-12.8-59.733333s4.266667-42.666667 12.8-59.733334l-17.066667-17.066666 21.333333-38.4 21.333334 8.533333c25.6-34.133333 64-55.466667 106.666666-59.733333l4.266667-25.6h42.666667l4.266666 21.333333c42.666667 8.533333 81.066667 29.866667 106.666667 64z m-200.533333 307.2L469.333333 597.333333h128l4.266667-34.133333c25.6-8.533333 51.2-21.333333 68.266667-38.4l29.866666 12.8L768 426.666667l-25.6-21.333334c4.266667-12.8 4.266667-25.6 4.266667-38.4s0-25.6-4.266667-38.4l25.6-29.866666-64-110.933334-29.866667 12.8c-21.333333-17.066667-42.666667-29.866667-68.266666-38.4l-8.533334-34.133333h-128l-4.266666 34.133333c-25.6 8.533333-51.2 21.333333-68.266667 38.4l-29.866667-12.8L298.666667 298.666667l25.6 21.333333c-4.266667 12.8-4.266667 25.6-4.266667 38.4s0 25.6 4.266667 38.4L298.666667 426.666667l64 110.933333 29.866666-12.8c21.333333 17.066667 46.933333 29.866667 72.533334 38.4z m418.133333-337.066667l-42.666667 25.6v209.066667l42.666667 25.6v-260.266667z m-64-106.666666l-221.866667-128V42.666667l179.2 102.4 42.666667-25.6z m-640 366.933333l42.666667-25.6v-209.066667l-42.666667-25.6V486.4zM247.466667 597.333333L469.333333 725.333333v-51.2L290.133333 571.733333l-42.666666 25.6z m571.733333 0l-42.666667-25.6L597.333333 674.133333V725.333333l221.866667-128zM247.466667 119.466667l42.666666 25.6L469.333333 42.666667v-51.2l-221.866666 128z m285.866666 541.866666c-25.6 0-42.666667 17.066667-42.666666 42.666667s17.066667 42.666667 42.666666 42.666667 42.666667-17.066667 42.666667-42.666667-17.066667-42.666667-42.666667-42.666667z m0-682.666666c-25.6 0-42.666667 17.066667-42.666666 42.666666s17.066667 42.666667 42.666666 42.666667 42.666667-17.066667 42.666667-42.666667-17.066667-42.666667-42.666667-42.666666z m260.266667 529.066666c-12.8 21.333333-4.266667 46.933333 17.066667 59.733334 21.333333 12.8 46.933333 4.266667 59.733333-17.066667 12.8-21.333333 4.266667-46.933333-17.066667-59.733333s-46.933333-4.266667-59.733333 17.066666z m-588.8-341.333333c-12.8 21.333333-4.266667 46.933333 17.066667 59.733333 21.333333 12.8 46.933333 4.266667 59.733333-17.066666 12.8-21.333333 4.266667-46.933333-17.066667-59.733334-25.6-12.8-51.2-4.266667-59.733333 17.066667z m72.533333 341.333333c-12.8-21.333333-38.4-29.866667-59.733333-17.066666s-25.6 38.4-12.8 59.733333c8.533333 21.333333 34.133333 25.6 55.466667 17.066667 21.333333-12.8 29.866667-38.4 17.066666-59.733334z m588.8-341.333333c-12.8-21.333333-38.4-25.6-59.733333-17.066667-21.333333 12.8-25.6 38.4-17.066667 59.733334s38.4 25.6 59.733334 17.066666c25.6-12.8 29.866667-38.4 17.066666-59.733333z m-332.8 110.933333c-46.933333 0-85.333333 38.4-85.333333 85.333334s38.4 85.333333 85.333333 85.333333 85.333333-38.4 85.333334-85.333333-38.4-85.333333-85.333334-85.333334z m0 42.666667c25.6 0 42.666667 17.066667 42.666667 42.666667s-17.066667 42.666667-42.666667 42.666666-42.666667-17.066667-42.666666-42.666666 21.333333-42.666667 42.666666-42.666667z"  horiz-adv-x="1024" />

    
    <glyph glyph-name="fuwuguanli_o" unicode="&#60263;" d="M674.133333 384l21.333334-8.533333 21.333333 38.4-17.066667 17.066666c8.533333 17.066667 12.8 38.4 12.8 59.733334s-4.266667 42.666667-12.8 59.733333l17.066667 17.066667-21.333333 38.4-21.333334-8.533334c-25.6 34.133333-64 55.466667-106.666666 59.733334l-8.533334 25.6h-42.666666l-4.266667-21.333334c-42.666667-8.533333-81.066667-29.866667-106.666667-64L384 605.866667l-21.333333-38.4 17.066666-17.066667c-8.533333-17.066667-12.8-38.4-12.8-59.733333s4.266667-42.666667 12.8-59.733334l-17.066666-17.066666 21.333333-38.4 21.333333 8.533333c25.6-34.133333 64-55.466667 106.666667-59.733333l4.266667-21.333334h42.666666l4.266667 21.333334c46.933333 4.266667 85.333333 25.6 110.933333 59.733333zM469.333333 691.2l4.266667 34.133333h128l4.266667-34.133333c25.6-8.533333 51.2-21.333333 68.266666-38.4l29.866667 12.8L776.533333 554.666667l-25.6-21.333334c4.266667-12.8 4.266667-25.6 4.266667-38.4s0-25.6-4.266667-38.4l25.6-21.333333-64-110.933333-29.866666 12.8c-21.333333-17.066667-42.666667-29.866667-68.266667-38.4l-12.8-42.666667h-128l-4.266667 34.133333c-25.6 8.533333-51.2 21.333333-68.266666 38.4l-29.866667-12.8L302.933333 426.666667l25.6 21.333333c-4.266667 12.8-4.266667 25.6-4.266666 38.4s0 25.6 4.266666 38.4L302.933333 554.666667l64 110.933333 29.866667-12.8c25.6 17.066667 46.933333 29.866667 72.533333 38.4z m170.666667-588.8V0h-42.666667v132.266667c140.8 29.866667 247.466667 145.066667 256 290.133333h42.666667c-8.533333-149.333333-115.2-277.333333-256-320z m-213.333333 0c-140.8 42.666667-247.466667 170.666667-256 324.266667h42.666666c8.533333-145.066667 115.2-264.533333 256-290.133334V0h-42.666666v102.4z m110.933333 302.933333c-46.933333 0-85.333333 38.4-85.333333 85.333334s38.4 85.333333 85.333333 85.333333 85.333333-38.4 85.333333-85.333333-34.133333-85.333333-85.333333-85.333334z m0 42.666667c25.6 0 42.666667 17.066667 42.666667 42.666667s-17.066667 42.666667-42.666667 42.666666-42.666667-17.066667-42.666667-42.666666 21.333333-42.666667 42.666667-42.666667z"  horiz-adv-x="1024" />

    
    <glyph glyph-name="gongzuoliu_o" unicode="&#60264;" d="M469.333333 192h-42.666666v128h213.333333v-128h-170.666667z m0 42.666667h128v42.666666h-128v-42.666666zM192 507.733333l38.4-21.333333c-12.8-34.133333-17.066667-68.266667-17.066667-102.4s4.266667-68.266667 17.066667-102.4l-38.4-21.333333C179.2 298.666667 170.666667 341.333333 170.666667 384s8.533333 85.333333 21.333333 123.733333zM256 618.666667c55.466667 64 128 110.933333 213.333333 128v-42.666667C401.066667 686.933333 337.066667 648.533333 290.133333 597.333333L256 618.666667z m618.666667-358.4l-38.4 21.333333c8.533333 29.866667 17.066667 68.266667 17.066666 102.4s-4.266667 68.266667-17.066666 102.4l38.4 21.333333c12.8-38.4 21.333333-81.066667 21.333333-123.733333s-8.533333-85.333333-21.333333-123.733333zM810.666667 149.333333c-55.466667-64-128-110.933333-213.333334-128v42.666667c68.266667 12.8 132.266667 51.2 179.2 106.666667l34.133334-21.333334z m-554.666667 0l34.133333 21.333334c46.933333-51.2 106.666667-89.6 179.2-106.666667v-42.666667c-85.333333 17.066667-162.133333 64-213.333333 128z m554.666667 469.333334l-34.133334-21.333334c-46.933333 51.2-106.666667 89.6-179.2 106.666667v42.666667c85.333333-17.066667 162.133333-64 213.333334-128zM533.333333 682.666667c-25.6 0-42.666667 17.066667-42.666666 42.666666s17.066667 42.666667 42.666666 42.666667 42.666667-17.066667 42.666667-42.666667-17.066667-42.666667-42.666667-42.666666z m0-682.666667c-25.6 0-42.666667 17.066667-42.666666 42.666667s17.066667 42.666667 42.666666 42.666666 42.666667-17.066667 42.666667-42.666666-17.066667-42.666667-42.666667-42.666667z m-298.666666 170.666667c-25.6 0-42.666667 17.066667-42.666667 42.666666s17.066667 42.666667 42.666667 42.666667 42.666667-17.066667 42.666666-42.666667-17.066667-42.666667-42.666666-42.666666z m597.333333 0c-25.6 0-42.666667 17.066667-42.666667 42.666666s17.066667 42.666667 42.666667 42.666667 42.666667-17.066667 42.666667-42.666667-17.066667-42.666667-42.666667-42.666666z m-597.333333 341.333333c-25.6 0-42.666667 17.066667-42.666667 42.666667s17.066667 42.666667 42.666667 42.666666 42.666667-17.066667 42.666666-42.666666-17.066667-42.666667-42.666666-42.666667z m597.333333 0c-25.6 0-42.666667 17.066667-42.666667 42.666667s17.066667 42.666667 42.666667 42.666666 42.666667-17.066667 42.666667-42.666666-17.066667-42.666667-42.666667-42.666667zM640 469.333333c0-59.733333-46.933333-106.666667-106.666667-106.666666S426.666667 409.6 426.666667 469.333333s46.933333 106.666667 106.666666 106.666667S640 529.066667 640 469.333333z m-42.666667 0c0 34.133333-29.866667 64-64 64S469.333333 503.466667 469.333333 469.333333s29.866667-64 64-64S597.333333 435.2 597.333333 469.333333z"  horiz-adv-x="1024" />

    
    <glyph glyph-name="fuwuxunhuanguanli_o" unicode="&#60265;" d="M665.6 256l21.333333-8.533333 21.333334 38.4-17.066667 17.066666c8.533333 17.066667 12.8 38.4 12.8 59.733334 0 21.333333-4.266667 42.666667-12.8 59.733333l17.066667 17.066667-21.333334 38.4-21.333333-8.533334c-25.6 34.133333-64 55.466667-106.666667 59.733334L554.666667 554.666667h-42.666667l-4.266667-21.333334c-42.666667-8.533333-81.066667-29.866667-106.666666-59.733333l-21.333334 4.266667-21.333333-38.4 17.066667-17.066667c-8.533333-17.066667-12.8-38.4-12.8-59.733333 0-21.333333 4.266667-42.666667 12.8-59.733334l-17.066667-17.066666 21.333333-38.4 21.333334 8.533333c25.6-34.133333 64-55.466667 106.666666-59.733333l4.266667-25.6h42.666667l4.266666 21.333333c42.666667 8.533333 81.066667 29.866667 106.666667 64z m-200.533333 307.2L469.333333 597.333333h128l4.266667-34.133333c25.6-8.533333 51.2-21.333333 68.266667-38.4l29.866666 12.8 64-110.933333-25.6-21.333334c4.266667-12.8 4.266667-25.6 4.266667-38.4 0-12.8 0-25.6-4.266667-38.4l29.866667-29.866666-64-110.933334-29.866667 12.8c-21.333333-17.066667-42.666667-29.866667-68.266666-38.4l-8.533334-34.133333h-128l-4.266666 34.133333c-25.6 8.533333-51.2 21.333333-68.266667 38.4l-29.866667-12.8L298.666667 298.666667l25.6 21.333333c-4.266667 12.8-4.266667 25.6-4.266667 38.4s0 25.6 4.266667 38.4l-25.6 25.6 64 110.933333 29.866666-12.8c21.333333 21.333333 46.933333 34.133333 72.533334 42.666667zM640-25.6V-85.333333l-85.333333 85.333333-42.666667 42.666667h21.333333c174.933333 0 320 145.066667 320 320 0 145.066667-93.866667 264.533333-226.133333 307.2L571.733333 725.333333c183.466667-21.333333 324.266667-174.933333 324.266667-362.666666 0-174.933333-123.733333-320-290.133333-354.133334l34.133333-34.133333zM426.666667 750.933333V810.666667l85.333333-85.333334 42.666667-42.666666h-21.333334C358.4 682.666667 213.333333 541.866667 213.333333 362.666667c0-140.8 93.866667-264.533333 221.866667-302.933334l55.466667-55.466666c-179.2 17.066667-320 170.666667-320 358.4C170.666667 537.6 294.4 682.666667 460.8 716.8l-34.133333 34.133333z m106.666666-473.6c-46.933333 0-85.333333 38.4-85.333333 85.333334s38.4 85.333333 85.333333 85.333333 85.333333-38.4 85.333334-85.333333-38.4-85.333333-85.333334-85.333334z m0 42.666667c25.6 0 42.666667 17.066667 42.666667 42.666667s-17.066667 42.666667-42.666667 42.666666-42.666667-17.066667-42.666666-42.666666 21.333333-42.666667 42.666666-42.666667z"  horiz-adv-x="1024" />

    
    <glyph glyph-name="guanliyuanrenzheng_o" unicode="&#60266;" d="M695.466667 102.4l119.466666 119.466667 29.866667-29.866667-149.333333-149.333333-4.266667 4.266666-89.6 89.6 29.866667 29.866667 64-64zM554.666667 85.333333v-42.666666H213.333333v136.533333L332.8 298.666667h311.466667l46.933333-46.933334-29.866667-29.866666-29.866666 34.133333H349.866667L256 162.133333V85.333333h298.666667z m128 448c0-106.666667-85.333333-192-192-192S298.666667 426.666667 298.666667 533.333333 384 725.333333 490.666667 725.333333 682.666667 640 682.666667 533.333333z m-42.666667 0C640 614.4 571.733333 682.666667 490.666667 682.666667S341.333333 614.4 341.333333 533.333333 409.6 384 490.666667 384 640 452.266667 640 533.333333z"  horiz-adv-x="1024" />

    
    <glyph glyph-name="jinzhidengji_o" unicode="&#60267;" d="M644.266667 89.6c0-4.266667-4.266667-17.066667-4.266667-25.6 0-34.133333 29.866667-64 64-64 8.533333 0 21.333333 4.266667 25.6 4.266667l-85.333333 85.333333z m34.133333 34.133333l85.333333-85.333333c4.266667 8.533333 4.266667 17.066667 4.266667 25.6 0 34.133333-29.866667 64-64 64-8.533333 0-21.333333-4.266667-25.6-4.266667zM725.333333 213.333333V682.666667h-132.266666c4.266667-8.533333 4.266667-12.8 4.266666-21.333334V597.333333H384V661.333333c0 8.533333 0 12.8 4.266667 21.333334H256v-640h298.666667v-42.666667H213.333333V725.333333h192c21.333333 25.6 51.2 42.666667 85.333334 42.666667s64-17.066667 85.333333-42.666667H768v-512h-42.666667zM554.666667 640v21.333333c0 34.133333-29.866667 64-64 64S426.666667 695.466667 426.666667 661.333333V640h128z m42.666666-213.333333v-42.666667H384v42.666667h213.333333z m0-85.333334v-42.666666H384v42.666666h213.333333z m0-85.333333v-42.666667H384v42.666667h213.333333z m106.666667-298.666667c-59.733333 0-106.666667 46.933333-106.666667 106.666667s46.933333 106.666667 106.666667 106.666667 106.666667-46.933333 106.666667-106.666667-46.933333-106.666667-106.666667-106.666667z"  horiz-adv-x="1024" />

    
    <glyph glyph-name="kuaisugongzuoliu_o" unicode="&#60268;" d="M192 507.733333l38.4-21.333333c-12.8-34.133333-17.066667-68.266667-17.066667-102.4s4.266667-68.266667 17.066667-102.4l-38.4-21.333333C179.2 298.666667 170.666667 341.333333 170.666667 384s8.533333 85.333333 21.333333 123.733333zM256 618.666667c55.466667 64 128 110.933333 213.333333 128v-42.666667C401.066667 686.933333 337.066667 648.533333 290.133333 597.333333L256 618.666667z m618.666667-358.4l-38.4 21.333333c8.533333 29.866667 17.066667 68.266667 17.066666 102.4s-4.266667 68.266667-17.066666 102.4l38.4 21.333333c12.8-38.4 21.333333-81.066667 21.333333-123.733333s-8.533333-85.333333-21.333333-123.733333zM810.666667 149.333333c-55.466667-64-128-110.933333-213.333334-128v42.666667c68.266667 12.8 132.266667 51.2 179.2 106.666667l34.133334-21.333334z m-554.666667 0l34.133333 21.333334c46.933333-51.2 106.666667-89.6 179.2-106.666667v-42.666667c-85.333333 17.066667-162.133333 64-213.333333 128z m554.666667 469.333334l-34.133334-21.333334c-46.933333 51.2-106.666667 89.6-179.2 106.666667v42.666667c85.333333-17.066667 162.133333-64 213.333334-128zM533.333333 682.666667c-25.6 0-42.666667 17.066667-42.666666 42.666666s17.066667 42.666667 42.666666 42.666667 42.666667-17.066667 42.666667-42.666667-17.066667-42.666667-42.666667-42.666666z m0-682.666667c-25.6 0-42.666667 17.066667-42.666666 42.666667s17.066667 42.666667 42.666666 42.666666 42.666667-17.066667 42.666667-42.666666-17.066667-42.666667-42.666667-42.666667z m-298.666666 170.666667c-25.6 0-42.666667 17.066667-42.666667 42.666666s17.066667 42.666667 42.666667 42.666667 42.666667-17.066667 42.666666-42.666667-17.066667-42.666667-42.666666-42.666666z m597.333333 0c-25.6 0-42.666667 17.066667-42.666667 42.666666s17.066667 42.666667 42.666667 42.666667 42.666667-17.066667 42.666667-42.666667-17.066667-42.666667-42.666667-42.666666z m-597.333333 341.333333c-25.6 0-42.666667 17.066667-42.666667 42.666667s17.066667 42.666667 42.666667 42.666666 42.666667-17.066667 42.666666-42.666666-17.066667-42.666667-42.666666-42.666667z m597.333333 0c-25.6 0-42.666667 17.066667-42.666667 42.666667s17.066667 42.666667 42.666667 42.666666 42.666667-17.066667 42.666667-42.666666-17.066667-42.666667-42.666667-42.666667z m-260.266667-59.733333h187.733334l-230.4-230.4v102.4H341.333333L571.733333 554.666667v-102.4z m-42.666666-42.666667v42.666667l-85.333334-85.333334h128v-42.666666l85.333334 85.333333h-128z"  horiz-adv-x="1024" />

    
    <glyph glyph-name="shangjia_o" unicode="&#60269;" d="M512 384l-38.4-38.4-29.866667 29.866667 89.6 89.6 89.6-89.6-29.866666-29.866667-38.4 38.4v-213.333333h298.666666v-42.666667h-341.333333v256z m-213.333333-341.333333h554.666666v-42.666667H213.333333v42.666667h42.666667V682.666667H213.333333V725.333333h640v-42.666666h-42.666666v-426.666667h-42.666667V682.666667H298.666667v-640z"  horiz-adv-x="1024" />

    
    <glyph glyph-name="shebeijiance_o" unicode="&#60270;" d="M652.8 213.333333l-34.133333 34.133334 29.866666 29.866666 34.133334-34.133333c21.333333 25.6 34.133333 59.733333 38.4 98.133333h-42.666667v42.666667h42.666667c-4.266667 38.4-17.066667 68.266667-38.4 98.133333l-34.133334-34.133333-29.866666 29.866667 34.133333 34.133333c-29.866667 21.333333-64 38.4-98.133333 42.666667v-42.666667h-42.666667V554.666667c-38.4-4.266667-68.266667-21.333333-98.133333-42.666667l38.4-38.4-29.866667-29.866667-38.4 38.4c-21.333333-29.866667-38.4-64-42.666667-98.133333h42.666667v-42.666667H341.333333c4.266667-38.4 21.333333-72.533333 42.666667-98.133333l38.4 38.4 29.866667-29.866667-38.4-38.4c25.6-21.333333 59.733333-34.133333 98.133333-38.4v42.666667h42.666667v-42.666667c38.4 0 72.533333 17.066667 98.133333 38.4z m115.2 128c-8.533333-110.933333-98.133333-200.533333-213.333333-213.333333h-42.666667c-110.933333 8.533333-200.533333 98.133333-213.333333 213.333333v42.666667c8.533333 110.933333 98.133333 200.533333 213.333333 213.333333h42.666667c110.933333-8.533333 200.533333-98.133333 213.333333-213.333333v-42.666667z m55.466667-196.266666l-29.866667 29.866666c38.4 51.2 59.733333 119.466667 59.733333 187.733334C853.333333 537.6 708.266667 682.666667 533.333333 682.666667S213.333333 537.6 213.333333 362.666667 358.4 42.666667 533.333333 42.666667c72.533333 0 140.8 25.6 192 64l29.866667-29.866667c-59.733333-46.933333-140.8-76.8-221.866667-76.8C332.8 0 170.666667 162.133333 170.666667 362.666667S332.8 725.333333 533.333333 725.333333 896 563.2 896 362.666667c0-81.066667-25.6-157.866667-72.533333-217.6zM533.333333 341.333333c-12.8 0-21.333333 8.533333-21.333333 21.333334 0 8.533333 8.533333 42.666667 21.333333 106.666666 12.8-64 21.333333-98.133333 21.333334-106.666666 0-12.8-8.533333-21.333333-21.333334-21.333334z"  horiz-adv-x="1024" />

    
    <glyph glyph-name="shebeisousuo_o" unicode="&#60271;" d="M849.066667 162.133333l59.733333-59.733333-29.866667-29.866667-59.733333 59.733334c-42.666667-25.6-98.133333-21.333333-132.266667 12.8-42.666667 42.666667-42.666667 110.933333 0 149.333333s110.933333 42.666667 149.333334 0c34.133333-34.133333 38.4-89.6 12.8-132.266667zM896 384h-42.666667V597.333333H213.333333v-469.333333h384v-42.666667H170.666667V640h725.333333v-256z m-298.666667-85.333333v-42.666667H213.333333v42.666667h384z m-384 170.666666h640v-42.666666H213.333333v42.666666z m42.666667 85.333334h42.666667v-42.666667H256V554.666667z m85.333333 0h42.666667v-42.666667H341.333333V554.666667z m-85.333333-170.666667h42.666667v-42.666667H256v42.666667z m85.333333 0h42.666667v-42.666667H341.333333v42.666667z m-85.333333-170.666667h42.666667v-42.666666H256v42.666666z m85.333333 0h42.666667v-42.666666H341.333333v42.666666z m371.2-38.4c25.6-25.6 64-25.6 89.6 0s25.6 64 0 89.6-64 25.6-89.6 0-25.6-64 0-89.6z"  horiz-adv-x="1024" />

    
    <glyph glyph-name="xunjianweixiu_o" unicode="&#60272;" d="M247.466667 81.066667l-29.866667-89.6L128 81.066667l89.6 29.866666 149.333333 149.333334 29.866667-29.866667-149.333333-149.333333zM695.466667 768l209.066666-209.066667-384-388.266666-209.066666 209.066666 384 388.266667z m0-59.733333l-328.533334-328.533334 149.333334-149.333333 328.533333 328.533333-149.333333 149.333334z m0-59.733334l29.866666-29.866666-264.533333-264.533334-29.866667 29.866667 264.533334 264.533333z m59.733333-59.733333l29.866667-29.866667-264.533334-264.533333-29.866666 29.866667 264.533333 264.533333z"  horiz-adv-x="1024" />

    
    <glyph glyph-name="yemianliu_o" unicode="&#60273;" d="M640 448h85.333333v-213.333333h-298.666666v85.333333H341.333333v213.333333h298.666667v-85.333333z m0-42.666667v-85.333333h-170.666667v-42.666667h213.333334v128h-42.666667z m170.666667-256c-68.266667-81.066667-166.4-132.266667-277.333334-132.266666s-213.333333 51.2-277.333333 132.266666l38.4 21.333334c59.733333-68.266667 145.066667-110.933333 238.933333-110.933334s183.466667 42.666667 238.933334 110.933334l38.4-21.333334z m64 110.933334l-38.4 21.333333c8.533333 34.133333 17.066667 68.266667 17.066666 102.4 0 157.866667-110.933333 290.133333-256 320v42.666667c170.666667-29.866667 298.666667-183.466667 298.666667-362.666667 0-42.666667-8.533333-85.333333-21.333333-123.733333z m-682.666667 0C179.2 298.666667 170.666667 341.333333 170.666667 384c0 179.2 128 332.8 298.666666 362.666667v-42.666667c-145.066667-29.866667-256-162.133333-256-320 0-34.133333 4.266667-68.266667 17.066667-102.4l-38.4-21.333333z m341.333333 422.4c-25.6 0-42.666667 17.066667-42.666666 42.666666s17.066667 42.666667 42.666666 42.666667 42.666667-17.066667 42.666667-42.666667-17.066667-42.666667-42.666667-42.666666z m-298.666666-512c-25.6 0-42.666667 17.066667-42.666667 42.666666s17.066667 42.666667 42.666667 42.666667 42.666667-17.066667 42.666666-42.666667-17.066667-42.666667-42.666666-42.666666z m597.333333 0c-25.6 0-42.666667 17.066667-42.666667 42.666666s17.066667 42.666667 42.666667 42.666667 42.666667-17.066667 42.666667-42.666667-17.066667-42.666667-42.666667-42.666666zM384 490.666667v-128h213.333333v128H384z"  horiz-adv-x="1024" />

    
    <glyph glyph-name="weixiufuwu_o" unicode="&#60274;" d="M793.6 588.8l29.866667 29.866667c72.533333-98.133333 64-238.933333-25.6-328.533334-76.8-76.8-196.266667-93.866667-290.133334-51.2l-221.866666-221.866666-34.133334 29.866666-59.733333 59.733334-29.866667 29.866666L384 358.4c-46.933333 93.866667-29.866667 213.333333 51.2 290.133333 89.6 89.6 230.4 98.133333 328.533333 25.6l-29.866666-29.866666L644.266667 554.666667l59.733333-59.733334 89.6 93.866667z m21.333333-38.4L733.866667 469.333333l-29.866667-29.866666-119.466667 119.466666 29.866667 29.866667 76.8 76.8c-76.8 34.133333-166.4 17.066667-226.133333-42.666667-85.333333-85.333333-85.333333-217.6 0-302.933333s217.6-85.333333 302.933333 0c59.733333 64 76.8 153.6 46.933333 230.4zM221.866667 140.8l59.733333-59.733333 183.466667 183.466666c-12.8 8.533333-21.333333 17.066667-34.133334 25.6s-21.333333 21.333333-25.6 34.133334l-183.466666-183.466667z"  horiz-adv-x="1024" />

    
    <glyph glyph-name="danxuanweixuanzhong_o" unicode="&#60275;" d="M533.333333 0C332.8 0 170.666667 162.133333 170.666667 362.666667S332.8 725.333333 533.333333 725.333333 896 563.2 896 362.666667 733.866667 0 533.333333 0z m0 42.666667c174.933333 0 320 145.066667 320 320S708.266667 682.666667 533.333333 682.666667 213.333333 537.6 213.333333 362.666667 358.4 42.666667 533.333333 42.666667z"  horiz-adv-x="1024" />

    
    <glyph glyph-name="bofang_o" unicode="&#60276;" d="M533.333333 0C332.8 0 170.666667 162.133333 170.666667 362.666667S332.8 725.333333 533.333333 725.333333 896 563.2 896 362.666667 733.866667 0 533.333333 0z m0 42.666667c174.933333 0 320 145.066667 320 320S708.266667 682.666667 533.333333 682.666667 213.333333 537.6 213.333333 362.666667 358.4 42.666667 533.333333 42.666667z m149.333334 320L469.333333 213.333333V512l213.333334-149.333333z m-68.266667 0L512 435.2v-145.066667l102.4 72.533334z"  horiz-adv-x="1024" />

    
    <glyph glyph-name="duoxuanweixuanzhong_o" unicode="&#60277;" d="M213.333333 682.666667h640v-640H213.333333V682.666667z m42.666667-42.666667v-554.666667h554.666667V640H256z"  horiz-adv-x="1024" />

    
    <glyph glyph-name="duoxuanxuanzhong_o" unicode="&#60278;" d="M499.2 302.933333l179.2 179.2 29.866667-29.866666-209.066667-209.066667-123.733333 123.733333 29.866666 29.866667 93.866667-93.866667zM213.333333 682.666667h640v-640H213.333333V682.666667z m42.666667-42.666667v-554.666667h554.666667V640H256z"  horiz-adv-x="1024" />

    
    <glyph glyph-name="gouwudai_o" unicode="&#60279;" d="M853.333333 512h-170.666666v-93.866667 8.533334h-42.666667V512h-213.333333v-85.333333H384V512H213.333333v-426.666667h640V512z m42.666667 0v-469.333333H170.666667V554.666667h213.333333v21.333333C384 657.066667 452.266667 725.333333 533.333333 725.333333S682.666667 657.066667 682.666667 576V554.666667h213.333333v-42.666667zM426.666667 554.666667h213.333333v21.333333C640 635.733333 593.066667 682.666667 533.333333 682.666667S426.666667 635.733333 426.666667 576V554.666667z"  horiz-adv-x="1024" />

    
    <glyph glyph-name="kefu_o" unicode="&#60280;" d="M554.666667 85.333333v42.666667h85.333333v-42.666667h128v384c-12.8 119.466667-110.933333 213.333333-234.666667 213.333334S311.466667 588.8 298.666667 469.333333v-426.666666H213.333333v298.666666h42.666667v106.666667C256 601.6 379.733333 725.333333 533.333333 725.333333S810.666667 601.6 810.666667 448V341.333333h42.666666v-298.666666h-298.666666v42.666666z"  horiz-adv-x="1024" />

    
    <glyph glyph-name="yuechi_o" unicode="&#60281;" d="M469.333333 375.466667c-29.866667 38.4-46.933333 85.333333-46.933333 136.533333 0 119.466667 93.866667 213.333333 213.333333 213.333333s213.333333-93.866667 213.333334-213.333333-93.866667-213.333333-213.333334-213.333333c-51.2 0-98.133333 17.066667-132.266666 46.933333l-136.533334-136.533333 76.8-76.8-29.866666-29.866667-76.8 76.8-59.733334-59.733333L349.866667 42.666667l-29.866667-29.866667-76.8 76.8-29.866667 29.866667 256 256zM635.733333 682.666667c-93.866667 0-170.666667-76.8-170.666666-170.666667s76.8-170.666667 170.666666-170.666667 170.666667 76.8 170.666667 170.666667-76.8 170.666667-170.666667 170.666667z"  horiz-adv-x="1024" />

    
    <glyph glyph-name="shounadaohang_o" unicode="&#60282;" d="M896 85.333333V640H170.666667v-554.666667h725.333333zM213.333333 128V597.333333h640v-469.333333H213.333333z m0 341.333333h640V512H213.333333v-42.666667z"  horiz-adv-x="1024" />

    
    <glyph glyph-name="zhediedaohang_o" unicode="&#60283;" d="M341.333333 597.333333H213.333333v-469.333333h640V597.333333H384v-469.333333H341.333333V597.333333z m554.666667 42.666667v-554.666667H170.666667V640h725.333333z"  horiz-adv-x="1024" />

    
    <glyph glyph-name="caidan_o" unicode="&#60284;" d="M170.666667 597.333333h682.666666v-42.666666H170.666667V597.333333z m0-426.666666h682.666666v-42.666667H170.666667v42.666667z m0 213.333333h682.666666v-42.666667H170.666667v42.666667z"  horiz-adv-x="1024" />

    
    <glyph glyph-name="anniu_xuanzhong_o" unicode="&#60285;" d="M507.733333 290.133333l179.2 179.2 29.866667-29.866666-196.266667-196.266667-12.8-12.8-145.066666 145.066667 29.866666 29.866666 115.2-115.2z m25.6-290.133333C332.8 0 170.666667 162.133333 170.666667 362.666667S332.8 725.333333 533.333333 725.333333 896 563.2 896 362.666667 733.866667 0 533.333333 0z m0 42.666667c174.933333 0 320 145.066667 320 320S708.266667 682.666667 533.333333 682.666667 213.333333 537.6 213.333333 362.666667 358.4 42.666667 533.333333 42.666667z"  horiz-adv-x="1024" />

    
    <glyph glyph-name="bangzhu_o" unicode="&#60286;" d="M512 277.333333v42.666667c0 12.8 8.533333 21.333333 21.333333 21.333333 34.133333 0 64 29.866667 64 64v42.666667c0 34.133333-29.866667 64-64 64s-64-29.866667-64-64v-42.666667c0-8.533333 0-12.8 4.266667-21.333333h-42.666667c0 8.533333-4.266667 12.8-4.266666 21.333333v42.666667C426.666667 507.733333 473.6 554.666667 533.333333 554.666667S640 507.733333 640 448v-42.666667c0-51.2-38.4-93.866667-85.333333-102.4V256h-42.666667v21.333333z m21.333333-277.333333C332.8 0 170.666667 162.133333 170.666667 362.666667S332.8 725.333333 533.333333 725.333333 896 563.2 896 362.666667 733.866667 0 533.333333 0z m0 42.666667c174.933333 0 320 145.066667 320 320S708.266667 682.666667 533.333333 682.666667 213.333333 537.6 213.333333 362.666667 358.4 42.666667 533.333333 42.666667z m-21.333333 170.666666h42.666667v-42.666666h-42.666667v42.666666z"  horiz-adv-x="1024" />

    
    <glyph glyph-name="cengji_o" unicode="&#60287;" d="M324.266667 354.133333l42.666666-25.6L256 268.8l264.533333-153.6 264.533334 153.6-110.933334 64 42.666667 25.6 153.6-89.6-349.866667-200.533333L170.666667 268.8l153.6 85.333333z m550.4 170.666667l-349.866667-204.8L170.666667 524.8 520.533333 725.333333l354.133334-200.533333z m-354.133334 149.333333L256 524.8l264.533333-153.6 264.533334 153.6-264.533334 149.333333z"  horiz-adv-x="1024" />

    
    <glyph glyph-name="chexiao_o" unicode="&#60288;" d="M384 665.6L273.066667 554.666667H682.666667c119.466667 0 213.333333-93.866667 213.333333-213.333334s-93.866667-213.333333-213.333333-213.333333H298.666667v42.666667h384c93.866667 0 170.666667 76.8 170.666666 170.666666s-76.8 170.666667-170.666666 170.666667H170.666667l42.666666 42.666667 140.8 140.8 29.866667-29.866667z"  horiz-adv-x="1024" />

    
    <glyph glyph-name="daohang_o" unicode="&#60289;" d="M409.6 234.666667l-256 119.466666 721.066667 345.6-345.6-721.066666-119.466667 256z m34.133333 34.133333l85.333334-187.733333 260.266666 537.6L256 354.133333l187.733333-85.333333z"  horiz-adv-x="1024" />

    
    <glyph glyph-name="duihao_o" unicode="&#60290;" d="M422.4 93.866667L128 384l29.866667 29.866667 264.533333-264.533334L908.8 640l29.866667-29.866667L422.4 93.866667z"  horiz-adv-x="1024" />

    
    <glyph glyph-name="anniu_guanbi_o" unicode="&#60291;" d="M503.466667 362.666667L384 482.133333l29.866667 29.866667 119.466666-119.466667L652.8 512l29.866667-29.866667-119.466667-119.466666 119.466667-119.466667-29.866667-29.866667-119.466667 119.466667L413.866667 213.333333l-29.866667 29.866667 119.466667 119.466667z m29.866666-362.666667C332.8 0 170.666667 162.133333 170.666667 362.666667S332.8 725.333333 533.333333 725.333333 896 563.2 896 362.666667 733.866667 0 533.333333 0z m0 42.666667c174.933333 0 320 145.066667 320 320S708.266667 682.666667 533.333333 682.666667 213.333333 537.6 213.333333 362.666667 358.4 42.666667 533.333333 42.666667z"  horiz-adv-x="1024" />

    
    <glyph glyph-name="Androidgengduo_o" unicode="&#60292;" d="M469.333333 725.333333h85.333334v-85.333333h-85.333334V725.333333z m0-298.666666h85.333334v-85.333334h-85.333334v85.333334z m0-298.666667h85.333334v-85.333333h-85.333334v85.333333z"  horiz-adv-x="1024" />

    
    <glyph glyph-name="guanbi_o" unicode="&#60293;" d="M558.933333 366.933333l285.866667-285.866666-29.866667-29.866667-285.866666 285.866667-285.866667-285.866667-29.866667 29.866667 285.866667 285.866666L213.333333 652.8l29.866667 29.866667 285.866667-285.866667L814.933333 682.666667l29.866667-29.866667-285.866667-285.866667z"  horiz-adv-x="1024" />

    
    <glyph glyph-name="guanyu_o" unicode="&#60294;" d="M512 256v170.666667h-42.666667v42.666666h85.333334v-213.333333h42.666666v-42.666667h-128v42.666667h42.666667z m21.333333-256C332.8 0 170.666667 162.133333 170.666667 362.666667S332.8 725.333333 533.333333 725.333333 896 563.2 896 362.666667 733.866667 0 533.333333 0z m0 42.666667c174.933333 0 320 145.066667 320 320S708.266667 682.666667 533.333333 682.666667 213.333333 537.6 213.333333 362.666667 358.4 42.666667 533.333333 42.666667zM554.666667 554.666667v-42.666667h-42.666667V554.666667h42.666667z"  horiz-adv-x="1024" />

    
    <glyph glyph-name="jiahao_o" unicode="&#60295;" d="M512 384V725.333333h42.666667v-341.333333h341.333333v-42.666667h-341.333333v-341.333333h-42.666667v341.333333H170.666667v42.666667h341.333333z"  horiz-adv-x="1024" />

    
    <glyph glyph-name="jieshaoxinxi_o" unicode="&#60296;" d="M469.333333 341.333333H384v-128h85.333333v128z m42.666667 0v-170.666666H341.333333v213.333333h170.666667v-42.666667z m170.666667 170.666667H384v-42.666667h298.666667V512z m42.666666 0v-85.333333H341.333333V554.666667h384v-42.666667zM213.333333 682.666667h640v-640H213.333333V682.666667z m42.666667-42.666667v-554.666667h554.666667V640H256z m298.666667-341.333333h170.666666v-42.666667h-170.666666v42.666667z m0 85.333333h170.666666v-42.666667h-170.666666v42.666667z m0-170.666667h170.666666v-42.666666h-170.666666v42.666666z"  horiz-adv-x="1024" />

    
    <glyph glyph-name="kaiguan_o" unicode="&#60297;" d="M469.333333 721.066667v-42.666667c-145.066667-29.866667-256-157.866667-256-311.466667 0-174.933333 145.066667-320 320-320s320 145.066667 320 320c0 153.6-110.933333 285.866667-256 311.466667v42.666667c170.666667-29.866667 298.666667-179.2 298.666667-358.4 0-200.533333-162.133333-362.666667-362.666667-362.666667S170.666667 162.133333 170.666667 362.666667c0 179.2 128 328.533333 298.666666 358.4z m42.666667 4.266666h42.666667v-170.666666h-42.666667V725.333333z"  horiz-adv-x="1024" />

    
    <glyph glyph-name="lishijilu_o" unicode="&#60298;" d="M516.266667 341.333333L512 554.666667h42.666667v-192l136.533333-136.533334-29.866667-29.866666-145.066666 145.066666z m-371.2 128l34.133333-34.133333C213.333333 601.6 358.4 725.333333 533.333333 725.333333c200.533333 0 362.666667-162.133333 362.666667-362.666666S733.866667 0 533.333333 0c-187.733333 0-341.333333 140.8-358.4 324.266667l55.466667-55.466667c38.4-132.266667 162.133333-226.133333 307.2-226.133333 174.933333 0 320 145.066667 320 320S708.266667 682.666667 533.333333 682.666667 213.333333 537.6 213.333333 362.666667v-21.333334l-42.666666 42.666667-85.333334 85.333333h59.733334z"  horiz-adv-x="1024" />

    
    <glyph glyph-name="liebiao_o" unicode="&#60299;" d="M170.666667 597.333333h682.666666v-42.666666H170.666667V597.333333z m0-426.666666h426.666666v-42.666667H170.666667v42.666667z m0 213.333333h682.666666v-42.666667H170.666667v42.666667z"  horiz-adv-x="1024" />

    
    <glyph glyph-name="jinyong_o" unicode="&#60300;" d="M533.333333 0C332.8 0 170.666667 162.133333 170.666667 362.666667S332.8 725.333333 533.333333 725.333333 896 563.2 896 362.666667 733.866667 0 533.333333 0z m0 42.666667c174.933333 0 320 145.066667 320 320S708.266667 682.666667 533.333333 682.666667 213.333333 537.6 213.333333 362.666667 358.4 42.666667 533.333333 42.666667zM396.8 529.066667l307.2-307.2-29.866667-29.866667-307.2 307.2 29.866667 29.866667z"  horiz-adv-x="1024" />

    
    <glyph glyph-name="pinleishanchu_o" unicode="&#60301;" d="M533.333333 392.533333l89.6 89.6 29.866667-29.866666-89.6-89.6 89.6-89.6-29.866667-29.866667-89.6 89.6-89.6-89.6-29.866666 29.866667 89.6 89.6-89.6 89.6 29.866666 29.866666 89.6-89.6zM213.333333 682.666667h640v-640H213.333333V682.666667z m42.666667-42.666667v-554.666667h554.666667V640H256z"  horiz-adv-x="1024" />

    
    <glyph glyph-name="pinleijianshao_o" unicode="&#60302;" d="M213.333333 682.666667h640v-640H213.333333V682.666667z m42.666667-42.666667v-554.666667h554.666667V640H256z m426.666667-256v-42.666667H384v42.666667h298.666667z"  horiz-adv-x="1024" />

    
    <glyph glyph-name="kongzhizhongxin_o" unicode="&#60303;" d="M640 170.666667v42.666666h170.666667v-42.666666h85.333333v-42.666667h-85.333333v-42.666667h-170.666667v42.666667H128v42.666667h512z m-213.333333 213.333333v42.666667h170.666666v-42.666667h298.666667v-42.666667h-298.666667v-42.666666h-170.666666v42.666666H128v42.666667h298.666667zM213.333333 597.333333V640h170.666667v-42.666667h512v-42.666666H384v-42.666667H213.333333V554.666667H128V597.333333h85.333333z m128 0H256v-42.666666h85.333333V597.333333z m213.333334-213.333333h-85.333334v-42.666667h85.333334v42.666667z m213.333333-213.333333h-85.333333v-42.666667h85.333333v42.666667z"  horiz-adv-x="1024" />

    
    <glyph glyph-name="pinleizengjia_o" unicode="&#60304;" d="M554.666667 341.333333v-128h-42.666667v128H384v42.666667h128V512h42.666667v-128h128v-42.666667h-128zM213.333333 682.666667h640v-640H213.333333V682.666667z m42.666667-42.666667v-554.666667h554.666667V640H256z"  horiz-adv-x="1024" />

    
    <glyph glyph-name="renwuzhongxin_o" unicode="&#60305;" d="M682.666667 170.666667v85.333333h42.666666v-213.333333h-42.666666v85.333333H170.666667v42.666667h512z m85.333333 0h85.333333v-42.666667h-85.333333v42.666667z m-298.666667 213.333333v85.333333h42.666667v-213.333333h-42.666667v85.333333H170.666667v42.666667h298.666666z m85.333334 0h298.666666v-42.666667h-298.666666v42.666667zM256 597.333333V682.666667h42.666667v-213.333334H256V554.666667H170.666667V597.333333h85.333333z m85.333333 0h512v-42.666666H341.333333V597.333333z"  horiz-adv-x="1024" />

    
    <glyph glyph-name="quanjushezhi_o" unicode="&#60306;" d="M256 140.8l55.466667 17.066667 17.066666-12.8c21.333333-12.8 38.4-25.6 64-38.4l21.333334-8.533334 8.533333-55.466666h145.066667l12.8 55.466666 21.333333 8.533334c21.333333 8.533333 42.666667 21.333333 64 38.4l17.066667 12.8 55.466666-17.066667 72.533334 128-42.666667 38.4 4.266667 21.333333c0 12.8 4.266667 25.6 4.266666 38.4s0 25.6-4.266666 38.4l-4.266667 17.066667 42.666667 38.4-72.533334 128-55.466666-21.333333-17.066667 12.8c-21.333333 12.8-38.4 25.6-64 38.4l-21.333333 8.533333-12.8 55.466667H422.4l-12.8-55.466667-21.333333-8.533333c-21.333333-8.533333-42.666667-21.333333-59.733334-34.133334l-21.333333-17.066666L256 584.533333l-72.533333-128 42.666666-38.4-4.266666-21.333333c0-12.8-4.266667-25.6-4.266667-38.4s0-25.6 4.266667-38.4l4.266666-21.333333-42.666666-38.4L256 140.8z m-76.8 179.2c0 12.8-4.266667 25.6-4.266667 42.666667s0 29.866667 4.266667 42.666666L128 452.266667l106.666667 183.466666 64-21.333333c21.333333 17.066667 46.933333 29.866667 72.533333 42.666667L388.266667 725.333333h213.333333l17.066667-68.266666c25.6-12.8 51.2-25.6 72.533333-42.666667l64 21.333333 106.666667-183.466666-51.2-46.933334c0-12.8 4.266667-25.6 4.266666-42.666666s0-29.866667-4.266666-42.666667l51.2-46.933333-106.666667-183.466667-64 21.333333c-21.333333-17.066667-46.933333-29.866667-72.533333-42.666666l-17.066667-68.266667h-213.333333l-17.066667 68.266667c-25.6 12.8-51.2 25.6-72.533333 42.666666l-64-21.333333L128 273.066667l51.2 46.933333z m315.733333-64c59.733333 0 106.666667 46.933333 106.666667 106.666667S554.666667 469.333333 494.933333 469.333333s-106.666667-46.933333-106.666666-106.666666 46.933333-106.666667 106.666666-106.666667z m0-42.666667c-81.066667 0-149.333333 68.266667-149.333333 149.333334S413.866667 512 494.933333 512s149.333333-68.266667 149.333334-149.333333-68.266667-149.333333-149.333334-149.333334z"  horiz-adv-x="1024" />

    
    <glyph glyph-name="jinggao_o" unicode="&#60307;" d="M533.333333 725.333333L938.666667 42.666667H128l405.333333 682.666666zM204.8 85.333333h661.333333L533.333333 640 204.8 85.333333z m307.2 384h42.666667v-213.333333h-42.666667v213.333333z m0-256h42.666667v-42.666666h-42.666667v42.666666z"  horiz-adv-x="1024" />

    
    <glyph glyph-name="shouye_o" unicode="&#60308;" d="M601.6 85.333333v128h-128v-128h128z m42.666667 0h213.333333v260.266667l-320 320-320-320V85.333333h213.333333v170.666667h213.333334v-170.666667z m256 234.666667V42.666667h-725.333334v277.333333H128L533.333333 725.333333l405.333334-405.333333h-38.4z"  horiz-adv-x="1024" />

    
    <glyph glyph-name="shuliang-zengjia_o" unicode="&#60309;" d="M512 384V554.666667h42.666667v-170.666667h170.666666v-42.666667h-170.666666v-170.666666h-42.666667v170.666666H341.333333v42.666667h170.666667z m21.333333-384C332.8 0 170.666667 162.133333 170.666667 362.666667S332.8 725.333333 533.333333 725.333333 896 563.2 896 362.666667 733.866667 0 533.333333 0z m0 42.666667c174.933333 0 320 145.066667 320 320S708.266667 682.666667 533.333333 682.666667 213.333333 537.6 213.333333 362.666667 358.4 42.666667 533.333333 42.666667z"  horiz-adv-x="1024" />

    
    <glyph glyph-name="shuaxin_o" unicode="&#60310;" d="M878.933333 469.333333H938.666667l-85.333334-85.333333-42.666666-42.666667v21.333334C810.666667 537.6 665.6 682.666667 490.666667 682.666667S170.666667 537.6 170.666667 362.666667 315.733333 42.666667 490.666667 42.666667c145.066667 0 264.533333 93.866667 307.2 226.133333l55.466666 55.466667c-21.333333-183.466667-174.933333-324.266667-358.4-324.266667C290.133333 0 128 162.133333 128 362.666667S290.133333 725.333333 490.666667 725.333333c174.933333 0 320-123.733333 354.133333-290.133333l34.133333 34.133333z"  horiz-adv-x="1024" />

    
    <glyph glyph-name="shanchu_o" unicode="&#60311;" d="M256 640h554.666667v-640H256V640z m42.666667-42.666667v-554.666666h469.333333V597.333333H298.666667z m128-128h42.666666v-298.666666h-42.666666v298.666666z m170.666666 0h42.666667v-298.666666h-42.666667v298.666666zM213.333333 640h640v-42.666667H213.333333V640z m213.333334 85.333333h213.333333v-42.666666h-213.333333V725.333333z"  horiz-adv-x="1024" />

    
    <glyph glyph-name="tishi_o" unicode="&#60312;" d="M533.333333 0C332.8 0 170.666667 162.133333 170.666667 362.666667S332.8 725.333333 533.333333 725.333333 896 563.2 896 362.666667 733.866667 0 533.333333 0z m0 42.666667c174.933333 0 320 145.066667 320 320S708.266667 682.666667 533.333333 682.666667 213.333333 537.6 213.333333 362.666667 358.4 42.666667 533.333333 42.666667z m21.333334 170.666666v-42.666666h-42.666667v42.666666h42.666667z m0 341.333334v-298.666667h-42.666667V554.666667h42.666667z"  horiz-adv-x="1024" />

    
    <glyph glyph-name="tuwen_o" unicode="&#60313;" d="M213.333333 682.666667h640v-640H213.333333V682.666667z m42.666667-42.666667v-554.666667h554.666667V640H256z m149.333333-256c-34.133333 0-64 29.866667-64 64S371.2 512 405.333333 512s64-29.866667 64-64-29.866667-64-64-64zM512 512h213.333333v-42.666667h-213.333333V512z m0-85.333333h213.333333v-42.666667h-213.333333v42.666667z m-170.666667-85.333334h384v-42.666666H341.333333v42.666666z m0-85.333333h384v-42.666667H341.333333v42.666667z"  horiz-adv-x="1024" />

    
    <glyph glyph-name="shitujuzhen_o" unicode="&#60314;" d="M213.333333 469.333333h170.666667v-170.666666H213.333333v170.666666z m42.666667-42.666666v-85.333334h85.333333v85.333334H256zM213.333333 682.666667h170.666667v-170.666667H213.333333V682.666667z m42.666667-42.666667v-85.333333h85.333333V640H256z m170.666667 42.666667h170.666666v-170.666667h-170.666666V682.666667z m42.666666-42.666667v-85.333333h85.333334V640h-85.333334z m-42.666666-170.666667h170.666666v-170.666666h-170.666666v170.666666z m42.666666-42.666666v-85.333334h85.333334v85.333334h-85.333334z m170.666667 256h170.666667v-170.666667h-170.666667V682.666667z m42.666667-42.666667v-85.333333h85.333333V640h-85.333333z m-42.666667-170.666667h170.666667v-170.666666h-170.666667v170.666666z m42.666667-42.666666v-85.333334h85.333333v85.333334h-85.333333z m-42.666667-170.666667h170.666667v-170.666667h-170.666667v170.666667z m42.666667-42.666667v-85.333333h85.333333v85.333333h-85.333333z m-256 42.666667h170.666666v-170.666667h-170.666666v170.666667z m42.666666-42.666667v-85.333333h85.333334v85.333333h-85.333334z m-256 42.666667h170.666667v-170.666667H213.333333v170.666667z m42.666667-42.666667v-85.333333h85.333333v85.333333H256z"  horiz-adv-x="1024" />

    
    <glyph glyph-name="xinzengdaohangliebiao_o" unicode="&#60315;" d="M725.333333 213.333333v85.333334h42.666667v-85.333334h85.333333v-42.666666h-85.333333v-85.333334h-42.666667v85.333334h-85.333333v42.666666h85.333333zM170.666667 640h682.666666v-42.666667H170.666667V640z m0-426.666667h426.666666v-42.666666H170.666667v42.666666z m0 213.333334h682.666666v-42.666667H170.666667v42.666667z"  horiz-adv-x="1024" />

    
    <glyph glyph-name="sousuo_o" unicode="&#60316;" d="M490.666667 85.333333C315.733333 85.333333 170.666667 230.4 170.666667 405.333333S315.733333 725.333333 490.666667 725.333333 810.666667 580.266667 810.666667 405.333333 665.6 85.333333 490.666667 85.333333z m0 42.666667c153.6 0 277.333333 123.733333 277.333333 277.333333S644.266667 682.666667 490.666667 682.666667 213.333333 558.933333 213.333333 405.333333 337.066667 128 490.666667 128z m264.533333 42.666667l119.466667-119.466667-29.866667-29.866667-119.466667 119.466667 29.866667 29.866667z"  horiz-adv-x="1024" />

    
    <glyph glyph-name="shuliangjianshao_o" unicode="&#60317;" d="M533.333333 0C332.8 0 170.666667 162.133333 170.666667 362.666667S332.8 725.333333 533.333333 725.333333 896 563.2 896 362.666667 733.866667 0 533.333333 0z m0 42.666667c174.933333 0 320 145.066667 320 320S708.266667 682.666667 533.333333 682.666667 213.333333 537.6 213.333333 362.666667 358.4 42.666667 533.333333 42.666667zM341.333333 384h384v-42.666667H341.333333v42.666667z"  horiz-adv-x="1024" />

    
    <glyph glyph-name="yemiankuangjia_o" unicode="&#60318;" d="M426.666667 469.333333v-384H384v384H256V512h554.666667v-42.666667h-384zM213.333333 682.666667h640v-640H213.333333V682.666667z m42.666667-42.666667v-554.666667h554.666667V640H256z"  horiz-adv-x="1024" />

    
    <glyph glyph-name="iosgengduo_o" unicode="&#60319;" d="M170.666667 426.666667h85.333333v-85.333334H170.666667zM469.333333 426.666667h85.333334v-85.333334h-85.333334zM768 426.666667h85.333333v-85.333334h-85.333333z"  horiz-adv-x="1024" />

    
    <glyph glyph-name="xiangji_o" unicode="&#60320;" d="M426.666667 640v-42.666667H213.333333v-469.333333h640V597.333333h-213.333333V640h-213.333333zM384 640V682.666667h298.666667v-42.666667h213.333333v-554.666667H170.666667V640h213.333333z m149.333333-426.666667C452.266667 213.333333 384 281.6 384 362.666667S452.266667 512 533.333333 512s149.333333-68.266667 149.333334-149.333333-68.266667-149.333333-149.333334-149.333334z m0 42.666667c59.733333 0 106.666667 46.933333 106.666667 106.666667S593.066667 469.333333 533.333333 469.333333 426.666667 422.4 426.666667 362.666667s46.933333-106.666667 106.666666-106.666667z"  horiz-adv-x="1024" />

    
    <glyph glyph-name="anniu_jiantoushouqi_o" unicode="&#60321;" d="M503.466667 439.466667l29.866666 29.866666 29.866667-29.866666 115.2-115.2-29.866667-29.866667-115.2 115.2-115.2-115.2-29.866666 29.866667 115.2 115.2z m29.866666-439.466667C332.8 0 170.666667 162.133333 170.666667 362.666667S332.8 725.333333 533.333333 725.333333 896 563.2 896 362.666667 733.866667 0 533.333333 0z m0 42.666667c174.933333 0 320 145.066667 320 320S708.266667 682.666667 533.333333 682.666667 213.333333 537.6 213.333333 362.666667 358.4 42.666667 533.333333 42.666667z"  horiz-adv-x="1024" />

    
    <glyph glyph-name="anniu_jiantouxiangzuo_o" unicode="&#60322;" d="M452.266667 388.266667l-29.866667-29.866667 29.866667-29.866667 115.2-115.2 29.866666 29.866667-115.2 115.2L597.333333 473.6l-29.866666 29.866667-115.2-115.2z m81.066666-388.266667c200.533333 0 362.666667 162.133333 362.666667 362.666667S733.866667 725.333333 533.333333 725.333333 170.666667 563.2 170.666667 362.666667 332.8 0 533.333333 0z m0 42.666667C358.4 42.666667 213.333333 187.733333 213.333333 362.666667S358.4 682.666667 533.333333 682.666667 853.333333 537.6 853.333333 362.666667 708.266667 42.666667 533.333333 42.666667z"  horiz-adv-x="1024" />

    
    <glyph glyph-name="anniu_jiantouzhankai_o" unicode="&#60323;" d="M503.466667 285.866667l29.866666-29.866667 29.866667 29.866667 115.2 115.2-29.866667 29.866666-115.2-115.2-115.2 115.2-29.866666-29.866666 115.2-115.2zM533.333333 725.333333C332.8 725.333333 170.666667 563.2 170.666667 362.666667S332.8 0 533.333333 0s362.666667 162.133333 362.666667 362.666667S733.866667 725.333333 533.333333 725.333333z m0-42.666666c174.933333 0 320-145.066667 320-320S708.266667 42.666667 533.333333 42.666667 213.333333 187.733333 213.333333 362.666667 358.4 682.666667 533.333333 682.666667z"  horiz-adv-x="1024" />

    
    <glyph glyph-name="jiantou_liebiaoshouqi_o" unicode="&#60324;" d="M533.333333 512L341.333333 320l29.866667-29.866667 162.133333 162.133334 162.133334-162.133334 29.866666 29.866667L533.333333 512z"  horiz-adv-x="1024" />

    
    <glyph glyph-name="jiantou_liebiaoxiangyou_o" unicode="&#60325;" d="M644.266667 401.066667l-192-192-29.866667 29.866666 162.133333 162.133334-162.133333 162.133333 29.866667 29.866667 192-192z"  horiz-adv-x="1024" />

    
    <glyph glyph-name="jiantou_liebiaozhankai_o" unicode="&#60326;" d="M533.333333 290.133333L341.333333 482.133333l29.866667 29.866667 162.133333-162.133333L695.466667 512l29.866666-29.866667-192-192z"  horiz-adv-x="1024" />

    
    <glyph glyph-name="jiantou_liebiaoxiangzuo_o" unicode="&#60327;" d="M384 384l192-192 29.866667 29.866667-162.133334 162.133333 162.133334 162.133333-29.866667 29.866667L384 384z"  horiz-adv-x="1024" />

    
    <glyph glyph-name="jiantou_shangyiye_o" unicode="&#60328;" d="M477.866667 362.666667L768 652.8l-29.866667 29.866667-320-320 320-320 29.866667 29.866666-290.133333 290.133334zM298.666667 682.666667H256v-640h42.666667V682.666667z"  horiz-adv-x="1024" />

    
    <glyph glyph-name="jiantou_xiayiye_o" unicode="&#60329;" d="M546.133333 362.666667L256 652.8l29.866667 29.866667 320-320L285.866667 42.666667l-29.866667 29.866666 290.133333 290.133334zM725.333333 682.666667h42.666667v-640h-42.666667V682.666667z"  horiz-adv-x="1024" />

    
    <glyph glyph-name="jiantou_xiangyouliangci_o" unicode="&#60330;" d="M759.466667 362.666667L469.333333 652.8l29.866667 29.866667 320-320-320-320-29.866667 29.866666 290.133334 290.133334z m-298.666667 0L170.666667 652.8l29.866666 29.866667 320-320L200.533333 42.666667l-29.866666 29.866666 290.133333 290.133334z"  horiz-adv-x="1024" />

    
    <glyph glyph-name="jiantou_yemian_xiangshang_o" unicode="&#60331;" d="M533.333333 384L341.333333 192l29.866667-29.866667 162.133333 162.133334 162.133334-162.133334 29.866666 29.866667-192 192z m0 256L341.333333 448l29.866667-29.866667 162.133333 162.133334 162.133334-162.133334 29.866666 29.866667L533.333333 640z"  horiz-adv-x="1024" />

    
    <glyph glyph-name="jiantou_xiangzuoliangci_o" unicode="&#60332;" d="M170.666667 362.666667L490.666667 682.666667l29.866666-29.866667-290.133333-290.133333 290.133333-290.133334-29.866666-29.866666L170.666667 362.666667z m298.666666 0L789.333333 682.666667l29.866667-29.866667-290.133333-290.133333 290.133333-290.133334-29.866667-29.866666-320 320z"  horiz-adv-x="1024" />

    
    <glyph glyph-name="jiantou_yemian_xiangyou_o" unicode="&#60333;" d="M516.266667 401.066667l-192-192-29.866667 29.866666 162.133333 162.133334-162.133333 162.133333 29.866667 29.866667 192-192z m256 0l-192-192-29.866667 29.866666 162.133333 162.133334-162.133333 162.133333 29.866667 29.866667 192-192z"  horiz-adv-x="1024" />

    
    <glyph glyph-name="jiantou_yemian_xiangzuo_o" unicode="&#60334;" d="M550.4 401.066667l192-192 29.866667 29.866666-162.133334 162.133334 162.133334 162.133333-29.866667 29.866667-192-192z m-256 0l192-192 29.866667 29.866666-162.133334 162.133334 162.133334 162.133333-29.866667 29.866667-192-192z"  horiz-adv-x="1024" />

    
    <glyph glyph-name="jiantou_yemian_xiangxia_o" unicode="&#60335;" d="M533.333333 418.133333L341.333333 610.133333l29.866667 29.866667 162.133333-162.133333L695.466667 640l29.866666-29.866667-192-192z m0-256L341.333333 354.133333l29.866667 29.866667 162.133333-162.133333 162.133334 162.133333 29.866666-29.866667-192-192z"  horiz-adv-x="1024" />

    
    <glyph glyph-name="fenxiang_o" unicode="&#60336;" d="M601.6 196.266667l-200.533333 110.933333C375.466667 277.333333 341.333333 256 298.666667 256c-72.533333 0-128 55.466667-128 128s55.466667 128 128 128c42.666667 0 81.066667-21.333333 106.666666-55.466667L640 576V597.333333c0 72.533333 55.466667 128 128 128s128-55.466667 128-128-55.466667-128-128-128c-46.933333 0-89.6 25.6-110.933333 64l-234.666667-115.2c4.266667-8.533333 4.266667-21.333333 4.266667-34.133333 0-12.8-4.266667-29.866667-8.533334-42.666667l196.266667-106.666666c25.6 38.4 64 64 110.933333 64 72.533333 0 128-55.466667 128-128s-55.466667-128-128-128-128 55.466667-128 128c0 8.533333 0 17.066667 4.266667 25.6zM298.666667 298.666667c46.933333 0 85.333333 38.4 85.333333 85.333333s-38.4 85.333333-85.333333 85.333333-85.333333-38.4-85.333334-85.333333 38.4-85.333333 85.333334-85.333333z m469.333333 213.333333c46.933333 0 85.333333 38.4 85.333333 85.333333s-38.4 85.333333-85.333333 85.333334-85.333333-38.4-85.333333-85.333334 38.4-85.333333 85.333333-85.333333z m-42.666667-426.666667c46.933333 0 85.333333 38.4 85.333334 85.333334s-38.4 85.333333-85.333334 85.333333-85.333333-38.4-85.333333-85.333333 38.4-85.333333 85.333333-85.333334z"  horiz-adv-x="1024" />

    
    <glyph glyph-name="gerentouxiang_o" unicode="&#60337;" d="M768 162.133333L674.133333 256H392.533333L298.666667 162.133333V85.333333h469.333333v76.8z m42.666667 17.066667V42.666667H256v136.533333L375.466667 298.666667h311.466666l123.733334-119.466667z m-85.333334 354.133333c0-106.666667-85.333333-192-192-192S341.333333 426.666667 341.333333 533.333333 426.666667 725.333333 533.333333 725.333333 725.333333 640 725.333333 533.333333z m-42.666666 0C682.666667 614.4 614.4 682.666667 533.333333 682.666667S384 614.4 384 533.333333s68.266667-149.333333 149.333333-149.333333S682.666667 452.266667 682.666667 533.333333z"  horiz-adv-x="1024" />

    
    <glyph glyph-name="qunzu_o" unicode="&#60338;" d="M682.666667 162.133333L588.8 256H307.2L213.333333 162.133333V85.333333h469.333334v76.8z m42.666666 17.066667V42.666667H170.666667v136.533333L290.133333 298.666667h311.466667l123.733333-119.466667z m42.666667-93.866667h42.666667v76.8L716.8 256h-17.066667l-34.133333 42.666667h72.533333l119.466667-119.466667V42.666667h-85.333333l-4.266667 42.666666z m-234.666667 260.266667c25.6 8.533333 46.933333 21.333333 64 38.4 46.933333 8.533333 85.333333 51.2 85.333334 102.4v85.333333c0 51.2-38.4 93.866667-85.333334 102.4-17.066667 17.066667-38.4 29.866667-64 38.4 12.8 4.266667 29.866667 4.266667 42.666667 4.266667C657.066667 725.333333 725.333333 657.066667 725.333333 576v-85.333333c0-81.066667-68.266667-149.333333-149.333333-149.333334-17.066667 0-29.866667 4.266667-42.666667 4.266667z m-85.333333 379.733333C529.066667 725.333333 597.333333 657.066667 597.333333 576v-85.333333c0-81.066667-68.266667-149.333333-149.333333-149.333334S298.666667 409.6 298.666667 490.666667v85.333333C298.666667 657.066667 366.933333 725.333333 448 725.333333z m0-42.666666C388.266667 682.666667 341.333333 635.733333 341.333333 576v-85.333333c0-59.733333 46.933333-106.666667 106.666667-106.666667S554.666667 430.933333 554.666667 490.666667v85.333333C554.666667 635.733333 507.733333 682.666667 448 682.666667z"  horiz-adv-x="1024" />

    
    <glyph glyph-name="dianhua_o" unicode="&#60339;" d="M226.133333 622.933333c-4.266667 12.8-8.533333 25.6-12.8 34.133334L371.2 725.333333c17.066667-64 42.666667-119.466667 72.533333-174.933333-29.866667-38.4-59.733333-72.533333-85.333333-106.666667 55.466667-85.333333 132.266667-157.866667 213.333333-213.333333 34.133333 25.6 68.266667 55.466667 106.666667 85.333333 55.466667-34.133333 110.933333-55.466667 174.933333-72.533333L785.066667 85.333333c-12.8 4.266667-25.6 8.533333-34.133334 12.8-243.2 81.066667-439.466667 277.333333-524.8 524.8zM768 136.533333l34.133333 81.066667c-38.4 12.8-76.8 29.866667-110.933333 51.2-25.6-21.333333-46.933333-38.4-72.533333-55.466667 42.666667-38.4 93.866667-59.733333 149.333333-76.8zM392.533333 554.666667c-17.066667 38.4-34.133333 72.533333-46.933333 115.2l-81.066667-34.133334c17.066667-51.2 42.666667-102.4 72.533334-153.6 17.066667 25.6 38.4 46.933333 55.466666 72.533334z"  horiz-adv-x="1024" />

    
    <glyph glyph-name="tianjiahaoyou_o" unicode="&#60340;" d="M768 384v85.333333h42.666667v-85.333333h85.333333v-42.666667h-85.333333v-85.333333h-42.666667v85.333333h-85.333333v42.666667h85.333333z m-85.333333-221.866667L588.8 256H307.2L213.333333 162.133333V85.333333h469.333334v76.8z m42.666666 17.066667V42.666667H170.666667v136.533333L290.133333 298.666667h311.466667l123.733333-119.466667zM448 725.333333C529.066667 725.333333 597.333333 657.066667 597.333333 576v-85.333333c0-81.066667-68.266667-149.333333-149.333333-149.333334S298.666667 409.6 298.666667 490.666667v85.333333C298.666667 657.066667 366.933333 725.333333 448 725.333333z m0-42.666666C388.266667 682.666667 341.333333 635.733333 341.333333 576v-85.333333c0-59.733333 46.933333-106.666667 106.666667-106.666667S554.666667 430.933333 554.666667 490.666667v85.333333C554.666667 635.733333 507.733333 682.666667 448 682.666667z"  horiz-adv-x="1024" />

    
    <glyph glyph-name="shoucang_o" unicode="&#60341;" d="M512 119.466667l-238.933333-85.333334 8.533333 251.733334L128 490.666667l243.2 72.533333L512 768l140.8-209.066667L896 490.666667l-153.6-200.533334 8.533333-251.733333-238.933333 81.066667z m0 51.2l187.733333-68.266667-4.266666 200.533333 123.733333 157.866667-192 55.466667-115.2 170.666666-110.933333-166.4-192-55.466666 123.733333-157.866667-4.266667-200.533333L512 170.666667z"  horiz-adv-x="1024" />

    
    <glyph glyph-name="xiai_o" unicode="&#60342;" d="M691.2 725.333333C810.666667 725.333333 896 644.266667 896 524.8c0-68.266667-34.133333-136.533333-93.866667-217.6-34.133333-46.933333-76.8-93.866667-136.533333-149.333333l-102.4-102.4-29.866667-29.866667-29.866666 29.866667c-12.8 12.8-85.333333 81.066667-102.4 102.4C341.333333 213.333333 298.666667 260.266667 264.533333 307.2 204.8 384 170.666667 456.533333 170.666667 524.8 170.666667 644.266667 256 725.333333 375.466667 725.333333c64 0 123.733333-29.866667 162.133333-76.8 34.133333 46.933333 93.866667 76.8 153.6 76.8zM853.333333 524.8C853.333333 622.933333 780.8 682.666667 691.2 682.666667c-51.2 0-98.133333-25.6-128-64l-29.866667-42.666667-29.866666 42.666667C469.333333 657.066667 422.4 682.666667 375.466667 682.666667 285.866667 682.666667 213.333333 622.933333 213.333333 524.8 213.333333 384 405.333333 213.333333 533.333333 85.333333c128 128 320 298.666667 320 439.466667z"  horiz-adv-x="1024" />

    
    <glyph glyph-name="zan_o" unicode="&#60343;" d="M465.066667 512L426.666667 682.666667H341.333333v-597.333334h469.333334V512h-345.6zM298.666667 554.666667V725.333333h170.666666l34.133334-170.666666H853.333333v-512H298.666667V554.666667zM213.333333 554.666667h42.666667v-512H213.333333V554.666667z"  horiz-adv-x="1024" />

    
    <glyph glyph-name="riqi_o" unicode="&#60344;" d="M341.333333 597.333333h384V682.666667h42.666667v-85.333334h128v-554.666666H170.666667V597.333333h128V682.666667h42.666666v-85.333334zM213.333333 554.666667v-469.333334h640V554.666667H213.333333z m213.333334-85.333334v-42.666666H298.666667v42.666666h128z m170.666666 0v-42.666666h-128v42.666666h128z m170.666667 0v-42.666666h-128v42.666666h128z m-341.333333-256v-42.666666H298.666667v42.666666h128z m170.666666 0v-42.666666h-128v42.666666h128z m170.666667 0v-42.666666h-128v42.666666h128z m-341.333333 128v-42.666666H298.666667v42.666666h128z m170.666666 0v-42.666666h-128v42.666666h128z m170.666667 0v-42.666666h-128v42.666666h128z"  horiz-adv-x="1024" />

    
    <glyph glyph-name="daibanrenwu_o" unicode="&#60345;" d="M512 200.533333l-128 123.733334 29.866667 29.866666 93.866666-93.866666 179.2 179.2 29.866667-29.866667-204.8-209.066667zM341.333333 597.333333h384V682.666667h42.666667v-85.333334h128v-554.666666H170.666667V597.333333h128V682.666667h42.666666v-85.333334zM213.333333 554.666667v-469.333334h640V554.666667H213.333333z"  horiz-adv-x="1024" />

    
    <glyph glyph-name="rili_o" unicode="&#60346;" d="M341.333333 597.333333h384V682.666667h42.666667v-85.333334h128v-554.666666H170.666667V597.333333h128V682.666667h42.666666v-85.333334zM213.333333 554.666667v-469.333334h640V554.666667H213.333333z m213.333334-85.333334v-42.666666H298.666667v42.666666h128z"  horiz-adv-x="1024" />

    
    <glyph glyph-name="shuzhuangtu_o" unicode="&#60347;" d="M554.666667 213.333333h85.333333v-128h-213.333333v128h85.333333v128H256v-128h85.333333v-128H128v128h85.333333v170.666667h298.666667V512h-85.333333V640h213.333333v-128h-85.333333v-128h298.666666v-170.666667h85.333334v-128h-213.333334v128h85.333334v128h-256v-128z m42.666666 384h-128v-42.666666h128V597.333333zM298.666667 170.666667H170.666667v-42.666667h128v42.666667z m597.333333 0h-128v-42.666667h128v42.666667z m-298.666667 0h-128v-42.666667h128v42.666667z"  horiz-adv-x="1024" />

    
    <glyph glyph-name="zhexiantu_o" unicode="&#60348;" d="M422.4 345.6l-21.333333 21.333333-89.6-89.6-29.866667 29.866667L396.8 426.666667l51.2-51.2L631.466667 554.666667l179.2-179.2-29.866667-29.866667-149.333333 149.333333-183.466667-183.466666-25.6 34.133333zM213.333333 85.333333h597.333334v-42.666666H170.666667V682.666667h42.666666v-597.333334z"  horiz-adv-x="1024" />

    
    <glyph glyph-name="didiandingwei_o" unicode="&#60349;" d="M768 42.666667v85.333333h-85.333333l42.666666 42.666667h85.333334v-170.666667H256v170.666667h85.333333l42.666667-42.666667H298.666667v-85.333333h469.333333z m-59.733333 290.133333c38.4 42.666667 59.733333 98.133333 59.733333 157.866667 0 128-106.666667 234.666667-234.666667 234.666666S298.666667 618.666667 298.666667 490.666667c0-59.733333 21.333333-115.2 59.733333-157.866667l174.933333-174.933333 174.933334 174.933333z m17.066666-42.666667l-187.733333-187.733333L341.333333 290.133333C290.133333 341.333333 256 409.6 256 490.666667 256 644.266667 379.733333 768 533.333333 768S810.666667 644.266667 810.666667 490.666667c0-72.533333-25.6-136.533333-72.533334-187.733334l-12.8-12.8zM533.333333 384c-59.733333 0-106.666667 46.933333-106.666666 106.666667S473.6 597.333333 533.333333 597.333333 640 550.4 640 490.666667 593.066667 384 533.333333 384z m0 42.666667c34.133333 0 64 29.866667 64 64S567.466667 554.666667 533.333333 554.666667 469.333333 524.8 469.333333 490.666667s29.866667-64 64-64z"  horiz-adv-x="1024" />

    
    <glyph glyph-name="fuwu_o" unicode="&#60350;" d="M640 145.066667V42.666667h-42.666667v132.266666c140.8 29.866667 247.466667 145.066667 256 290.133334h42.666667c-8.533333-149.333333-115.2-277.333333-256-320z m-213.333333 0c-140.8 42.666667-247.466667 170.666667-256 324.266666h42.666666c8.533333-145.066667 115.2-264.533333 256-290.133333V42.666667h-42.666666v102.4zM635.733333 725.333333C712.533333 725.333333 768 669.866667 768 593.066667c0-68.266667-55.466667-132.266667-98.133333-174.933334-29.866667-29.866667-72.533333-59.733333-136.533334-89.6-64 34.133333-110.933333 64-136.533333 89.6-42.666667 42.666667-98.133333 106.666667-98.133333 174.933334C298.666667 669.866667 354.133333 725.333333 430.933333 725.333333c42.666667 0 76.8-17.066667 102.4-51.2 29.866667 34.133333 64 51.2 102.4 51.2z m4.266667-277.333333c51.2 51.2 85.333333 102.4 85.333333 145.066667 0 55.466667-38.4 89.6-89.6 89.6-21.333333 0-38.4-8.533333-51.2-17.066667-8.533333-4.266667-12.8-8.533333-17.066666-17.066667l-34.133334-42.666666-34.133333 42.666666c-4.266667 8.533333-8.533333 12.8-17.066667 17.066667-12.8 8.533333-29.866667 17.066667-51.2 17.066667C375.466667 682.666667 341.333333 648.533333 341.333333 593.066667c0-42.666667 34.133333-93.866667 85.333334-145.066667 21.333333-21.333333 59.733333-46.933333 106.666666-72.533333 46.933333 25.6 85.333333 51.2 106.666667 72.533333z"  horiz-adv-x="1024" />

    
    <glyph glyph-name="kuaidiyuan_o" unicode="&#60353;" d="M725.333333 512c-8.533333-93.866667-93.866667-170.666667-192-170.666667S354.133333 418.133333 341.333333 512V554.666667c8.533333 93.866667 93.866667 170.666667 192 170.666666s179.2-76.8 192-170.666666h85.333334v-42.666667h-85.333334z m-42.666666 0H384c8.533333-72.533333 72.533333-128 149.333333-128s136.533333 55.466667 149.333334 128zM384 554.666667h298.666667c-8.533333 72.533333-72.533333 128-149.333334 128S396.8 627.2 384 554.666667z m384-392.533334L674.133333 256H392.533333L298.666667 162.133333V85.333333h469.333333v76.8z m42.666667 17.066667V42.666667H256v136.533333L375.466667 298.666667h311.466666l123.733334-119.466667z"  horiz-adv-x="1024" />

    
    <glyph glyph-name="jianzhu_o" unicode="&#60354;" d="M682.666667 42.666667H213.333333V682.666667h469.333334v-256h170.666666v-384h-170.666666z m0 42.666666h128v298.666667h-128v-298.666667z m-42.666667 298.666667V640H256v-554.666667h384v298.666667zM341.333333 512V597.333333h42.666667v-85.333333H341.333333z m85.333334 0V597.333333h42.666666v-85.333333h-42.666666z m-85.333334-128v85.333333h42.666667v-85.333333H341.333333z m85.333334 0v85.333333h42.666666v-85.333333h-42.666666z m-85.333334-128v85.333333h42.666667v-85.333333H341.333333z m85.333334 0v85.333333h42.666666v-85.333333h-42.666666z m-85.333334-128v85.333333h42.666667v-85.333333H341.333333z m85.333334 0v85.333333h42.666666v-85.333333h-42.666666z m85.333333 384V597.333333h42.666667v-85.333333h-42.666667z m0-128v85.333333h42.666667v-85.333333h-42.666667z m0-128v85.333333h42.666667v-85.333333h-42.666667z m0-128v85.333333h42.666667v-85.333333h-42.666667z m213.333333 170.666667v42.666666h42.666667v-42.666666h-42.666667z m0-85.333334v42.666667h42.666667v-42.666667h-42.666667z m0-85.333333v42.666667h42.666667v-42.666667h-42.666667z"  horiz-adv-x="1024" />

    
    <glyph glyph-name="kuaidiyuanguanli_o" unicode="&#60355;" d="M789.333333 448V469.333333h42.666667v-25.6c12.8-4.266667 25.6-8.533333 38.4-17.066666l17.066667 17.066666 29.866666-29.866666-17.066666-17.066667c8.533333-12.8 12.8-25.6 17.066666-38.4h21.333334v-42.666667h-25.6c-4.266667-12.8-8.533333-25.6-17.066667-38.4l17.066667-17.066666-29.866667-29.866667-17.066667 17.066667c-12.8-8.533333-25.6-12.8-38.4-17.066667v-17.066667h-42.666666v25.6c-12.8 4.266667-25.6 8.533333-38.4 17.066667l-17.066667-17.066667-29.866667 29.866667 17.066667 17.066667c-8.533333 12.8-12.8 25.6-17.066667 38.4H682.666667v42.666666h25.6c4.266667 12.8 8.533333 25.6 17.066666 38.4l-17.066666 17.066667 29.866666 29.866667 17.066667-17.066667c8.533333 4.266667 21.333333 8.533333 34.133333 12.8zM640 512c-8.533333-93.866667-93.866667-170.666667-192-170.666667S268.8 418.133333 256 512V554.666667c8.533333 93.866667 93.866667 170.666667 192 170.666666s179.2-76.8 192-170.666666h85.333333v-42.666667h-85.333333z m-42.666667 0H298.666667c8.533333-72.533333 72.533333-128 149.333333-128s136.533333 55.466667 149.333333 128zM298.666667 554.666667h298.666666c-8.533333 72.533333-72.533333 128-149.333333 128S311.466667 627.2 298.666667 554.666667z m384-392.533334L588.8 256H307.2L213.333333 162.133333V85.333333h469.333334v76.8z m42.666666 17.066667V42.666667H170.666667v136.533333L290.133333 298.666667h311.466667l123.733333-119.466667z m85.333334 98.133333c34.133333 0 64 29.866667 64 64s-29.866667 64-64 64-64-29.866667-64-64 29.866667-64 64-64z m0 42.666667c-12.8 0-21.333333 8.533333-21.333334 21.333333s8.533333 21.333333 21.333334 21.333334 21.333333-8.533333 21.333333-21.333334-8.533333-21.333333-21.333333-21.333333z"  horiz-adv-x="1024" />

    
    <glyph glyph-name="jingliren_o" unicode="&#60356;" d="M426.666667 85.333333l42.666666-42.666666H256v166.4L345.6 298.666667h59.733333l34.133334-42.666667H362.666667L298.666667 192V85.333333h128z m213.333333 0h128v106.666667L704 256h-72.533333l34.133333 42.666667H725.333333l89.6-89.6V42.666667h-213.333333l38.4 42.666666z m-93.866667 145.066667l51.2-123.733333-64-64-64 64 51.2 123.733333L469.333333 298.666667h128l-51.2-68.266667zM725.333333 533.333333c0-106.666667-85.333333-192-192-192S341.333333 426.666667 341.333333 533.333333 426.666667 725.333333 533.333333 725.333333 725.333333 640 725.333333 533.333333z m-42.666666 0C682.666667 614.4 614.4 682.666667 533.333333 682.666667S384 614.4 384 533.333333s68.266667-149.333333 149.333333-149.333333S682.666667 452.266667 682.666667 533.333333z"  horiz-adv-x="1024" />

    
    <glyph glyph-name="CPhezuo_o" unicode="&#60360;" d="M597.333333 285.866667V426.666667h256v-384h-256v183.466666l-64-64-106.666666 106.666667 29.866666 29.866667 76.8-76.8 64 64z m213.333334 98.133333h-170.666667v-298.666667h170.666667v298.666667z m-384 0H256v-298.666667h170.666667v298.666667z m42.666666 0v-341.333333H213.333333v384h256v-42.666667z m384 213.333333c0-72.533333-55.466667-128-128-128s-128 55.466667-128 128 55.466667 128 128 128 128-55.466667 128-128z m-42.666666 0c0 46.933333-38.4 85.333333-85.333334 85.333334s-85.333333-38.4-85.333333-85.333334 38.4-85.333333 85.333333-85.333333 85.333333 38.4 85.333334 85.333333z m-341.333334 0c0-72.533333-55.466667-128-128-128S213.333333 524.8 213.333333 597.333333s55.466667 128 128 128 128-55.466667 128-128z m-42.666666 0c0 46.933333-38.4 85.333333-85.333334 85.333334s-85.333333-38.4-85.333333-85.333334 38.4-85.333333 85.333333-85.333333 85.333333 38.4 85.333334 85.333333z"  horiz-adv-x="1024" />

    
    <glyph glyph-name="duanxinqunfa_o" unicode="&#60361;" d="M853.333333 571.733333l-315.733333-243.2v-4.266666 4.266666L213.333333 571.733333V341.333333H170.666667V640h725.333333v-554.666667H170.666667v42.666667h682.666666V571.733333z m-34.133333 25.6H247.466667l285.866666-217.6L819.2 597.333333zM85.333333 298.666667h170.666667v-42.666667H85.333333v42.666667z m-42.666666-85.333334h170.666666v-42.666666H42.666667v42.666666z"  horiz-adv-x="1024" />

    
    <glyph glyph-name="xinwen_o" unicode="&#60362;" d="M384 85.333333h311.466667c-8.533333 12.8-12.8 25.6-12.8 42.666667V640H256v-512c0-25.6 17.066667-42.666667 42.666667-42.666667h85.333333z m-170.666667 42.666667V682.666667h512v-128h128v-426.666667c0-46.933333-38.4-85.333333-85.333333-85.333333H298.666667c-46.933333 0-85.333333 38.4-85.333334 85.333333z m512 384v-384c0-25.6 17.066667-42.666667 42.666667-42.666667s42.666667 17.066667 42.666667 42.666667V512h-85.333334zM341.333333 512h256v-42.666667H341.333333V512z m0-128h256v-42.666667H341.333333v42.666667z m0-128h170.666667v-42.666667H341.333333v42.666667z"  horiz-adv-x="1024" />

    
    <glyph glyph-name="youjian_o" unicode="&#60363;" d="M819.2 597.333333H247.466667l285.866666-217.6L819.2 597.333333z m34.133333-25.6l-315.733333-243.2v-4.266666 4.266666L213.333333 571.733333V128h640V571.733333zM896 640v-554.666667H170.666667V640h725.333333z"  horiz-adv-x="1024" />

    
    <glyph glyph-name="dengchu_o" unicode="&#60364;" d="M874.666667 384l-55.466667 55.466667 29.866667 29.866666 106.666666-106.666666-106.666666-106.666667-29.866667 29.866667 55.466667 55.466666H554.666667v42.666667h320zM725.333333 469.333333h-42.666666V640H298.666667v-554.666667h384v170.666667h42.666666v-213.333333H256V682.666667h469.333333v-213.333334z"  horiz-adv-x="1024" />

    
    <glyph glyph-name="gerenxinxi_o" unicode="&#60365;" d="M469.333333 213.333333c0 46.933333-38.4 85.333333-85.333333 85.333334s-85.333333-38.4-85.333333-85.333334H256c0 72.533333 55.466667 128 128 128s128-55.466667 128-128h-42.666667zM896 640v-554.666667H170.666667V640h725.333333zM213.333333 597.333333v-469.333333h640V597.333333H213.333333z m597.333334-128v-42.666666h-256v42.666666h256z m0-85.333333v-42.666667h-256v42.666667h256z m-42.666667-85.333333v-42.666667h-213.333333v42.666667h213.333333z m-384 42.666666c-46.933333 0-85.333333 38.4-85.333333 85.333334s38.4 85.333333 85.333333 85.333333 85.333333-38.4 85.333333-85.333333-38.4-85.333333-85.333333-85.333334z m0 42.666667c25.6 0 42.666667 17.066667 42.666667 42.666667s-17.066667 42.666667-42.666667 42.666666-42.666667-17.066667-42.666667-42.666666 17.066667-42.666667 42.666667-42.666667z"  horiz-adv-x="1024" />

    
    <glyph glyph-name="anniu_gerenzhongxin_o" unicode="&#60366;" d="M597.333333 256h-128v-42.666667h128v42.666667z m42.666667 0v-85.333333h-213.333333v128h213.333333v-42.666667z m-106.666667-256C332.8 0 170.666667 162.133333 170.666667 362.666667S332.8 725.333333 533.333333 725.333333 896 563.2 896 362.666667 733.866667 0 533.333333 0z m0 42.666667c174.933333 0 320 145.066667 320 320S708.266667 682.666667 533.333333 682.666667 213.333333 537.6 213.333333 362.666667 358.4 42.666667 533.333333 42.666667z m106.666667 405.333333c0-59.733333-46.933333-106.666667-106.666667-106.666667S426.666667 388.266667 426.666667 448 473.6 554.666667 533.333333 554.666667 640 507.733333 640 448z m-42.666667 0c0 34.133333-29.866667 64-64 64s-64-29.866667-64-64 29.866667-64 64-64 64 29.866667 64 64z"  horiz-adv-x="1024" />

    


  </font>
</defs>
</svg>
